<svg preserveAspectRatio="none" width="100%" height="100%" overflow="visible" style="display: block;" viewBox="0 0 121 121" fill="none" xmlns="http://www.w3.org/2000/svg">
<g id="avito logo" style="mix-blend-mode:plus-lighter" opacity="0.5" filter="url(#filter0_f_1739_47748)">
<path id="bg" d="M28.4036 51.039C28.4036 42.973 28.4036 38.94 29.9734 35.8592C31.3542 33.1492 33.5574 30.9459 36.2674 29.5652C39.3482 27.9954 43.3812 27.9954 51.4472 27.9954H70.1701C78.2361 27.9954 82.2691 27.9954 85.3499 29.5652C88.0599 30.9459 90.2631 33.1492 91.6439 35.8592C93.2137 38.94 93.2137 42.973 93.2137 51.039V69.7619C93.2137 77.8279 93.2137 81.8609 91.6439 84.9417C90.2631 87.6517 88.0599 89.8549 85.3499 91.2357C82.2691 92.8055 78.2361 92.8055 70.1701 92.8055H51.4472C43.3812 92.8055 39.3482 92.8055 36.2674 91.2357C33.5574 89.8549 31.3542 87.6517 29.9734 84.9417C28.4036 81.8609 28.4036 77.8279 28.4036 69.7619V51.039Z" fill="url(#paint0_linear_1739_47748)"/>
<g id="camera">
<path d="M38.3822 50.0128C37.6614 51.3839 37.6614 53.1788 37.6614 56.7686V64.0331C37.6614 67.6229 37.6614 69.4178 38.3822 70.7889C39.0163 71.995 40.028 72.9756 41.2723 73.5901C42.687 74.2887 44.5389 74.2887 48.2427 74.2887H59.4117C63.1155 74.2887 64.9674 74.2887 66.3821 73.5901C67.6264 72.9756 68.6381 71.995 69.2722 70.7889C69.993 69.4178 69.993 67.6229 69.993 64.0331V56.7686C69.993 53.1788 69.993 51.3839 69.2722 50.0128C68.6381 48.8067 67.6264 47.8261 66.3821 47.2116C64.9674 46.513 63.1155 46.513 59.4117 46.513H48.2427C44.5389 46.513 42.687 46.513 41.2723 47.2116C40.028 47.8261 39.0163 48.8067 38.3822 50.0128Z" fill="var(--fill-0, #FDFEFF)"/>
<path d="M72.5137 54.3835L79.7304 48.5203C81.4041 47.1605 83.9543 48.3139 83.9543 50.4306V70.4311C83.9543 72.5377 81.4254 73.6945 79.7476 72.3553L72.5333 66.597C71.8554 66.0558 71.4626 65.2492 71.4626 64.3979V56.5667C71.4626 55.7241 71.8474 54.9247 72.5137 54.3835Z" fill="var(--fill-0, #FDFEFF)"/>
</g>
</g>
<defs>
<filter id="filter0_f_1739_47748" x="-4.77574" y="-11.7757" width="129.62" height="132.357" filterUnits="userSpaceOnUse" color-interpolation-filters="sRGB">
<feFlood flood-opacity="0" result="BackgroundImageFix"/>
<feBlend mode="normal" in="SourceGraphic" in2="BackgroundImageFix" result="shape"/>
<feGaussianBlur stdDeviation="13.8879" result="effect1_foregroundBlur_1739_47748"/>
</filter>
<linearGradient id="paint0_linear_1739_47748" x1="60.8087" y1="27.9954" x2="60.8087" y2="92.8055" gradientUnits="userSpaceOnUse">
<stop stop-color="#9F73ED"/>
<stop offset="1" stop-color="#FD686C"/>
</linearGradient>
</defs>
</svg>
