<svg preserveAspectRatio="none" width="100%" height="100%" overflow="visible" style="display: block;" viewBox="0 0 27 22" fill="none" xmlns="http://www.w3.org/2000/svg">
<g id="Group">
<path id="Vector" d="M24.7064 21.2222C23.5626 20.9097 3.3126 14.5597 1.68135 14.0035C0.793855 13.6972 0.268855 13.2222 0.0751049 12.5347C-0.181145 11.6722 0.237605 10.6972 1.0376 10.2597C1.3751 10.0785 2.30635 9.90973 5.33135 9.49723C6.01885 9.39723 6.6001 9.30348 6.6251 9.28473C6.6501 9.26598 7.1001 7.89098 7.63135 6.23473C8.26885 4.22848 8.64385 3.14098 8.75635 2.97848C8.9876 2.64723 9.3626 2.44723 9.7626 2.44723C10.3814 2.44098 10.4751 2.50348 11.9251 3.94098C12.6689 4.67848 13.2939 5.27848 13.3251 5.27848C13.3501 5.27848 13.6439 5.05973 13.9751 4.79098C16.1251 3.05973 19.5751 0.52223 20.1564 0.24723C20.9314 -0.12152 21.7689 -0.0777699 22.5251 0.37848C23.1751 0.76598 23.4626 1.14098 23.7439 1.94723C23.8126 2.14723 24.2064 4.40348 24.6189 6.96598C26.4564 18.3722 26.6876 19.9097 26.6189 20.2222C26.4189 21.0972 25.6751 21.4847 24.7064 21.2222ZM21.1751 17.191C21.1251 17.1472 20.3376 16.4535 19.4251 15.6472C17.0064 13.5222 15.6626 12.3097 13.8314 10.616C11.6564 8.59723 11.1814 8.09723 10.9376 7.59098C10.7376 7.15973 10.5501 6.52223 10.5501 6.25348C10.5501 6.16598 10.5251 6.09098 10.5001 6.09098C10.4564 6.09098 9.10635 10.316 9.0876 10.5097C9.08135 10.566 21.0751 17.2472 21.2376 17.2722C21.2501 17.2785 21.2251 17.241 21.1751 17.191Z" fill="var(--fill-0, #2E2E30)"/>
</g>
</svg>
