<svg preserveAspectRatio="none" width="100%" height="100%" overflow="visible" style="display: block;" viewBox="0 0 20 25" fill="none" xmlns="http://www.w3.org/2000/svg">
<g id="Group 33488">
<path id="Exclude" fill-rule="evenodd" clip-rule="evenodd" d="M10.7177 24.7734C10.2869 25.0755 9.71242 25.0751 9.28163 24.773L9.27848 24.7707L9.2715 24.7658L9.24821 24.7492C9.2286 24.7352 9.2009 24.7153 9.16566 24.6896C9.09519 24.6383 8.99447 24.5639 8.86783 24.4677C8.61467 24.2753 8.2572 23.9953 7.83014 23.6376C6.97784 22.9236 5.83889 21.8923 4.69615 20.6234C2.4546 18.1344 0 14.5132 0 10.4545C0 7.70168 1.03898 5.04962 2.90685 3.08472C4.77676 1.11767 7.32682 0 10 0C12.6732 0 15.2232 1.11767 17.0932 3.08472C18.961 5.04962 20 7.70168 20 10.4545C20 14.5132 17.5454 18.1344 15.3038 20.6234C14.1611 21.8923 13.0222 22.9236 12.1699 23.6376C11.7428 23.9953 11.3853 24.2753 11.1322 24.4677C11.0055 24.5639 10.9048 24.6383 10.8343 24.6896C10.7991 24.7153 10.7714 24.7352 10.7518 24.7492L10.7285 24.7658L10.7215 24.7707L10.7192 24.7724L10.7177 24.7734ZM6.25 10C6.25 7.92893 7.92893 6.25 10 6.25C12.0711 6.25 13.75 7.92893 13.75 10C13.75 12.0711 12.0711 13.75 10 13.75C7.92893 13.75 6.25 12.0711 6.25 10Z" fill="var(--fill-0, #0A0B11)"/>
</g>
</svg>
