<svg preserveAspectRatio="none" width="100%" height="100%" overflow="visible" style="display: block;" viewBox="0 0 55 55" fill="none" xmlns="http://www.w3.org/2000/svg">
<g id="xbox">
<circle id="vector" opacity="0.852" cx="27.0455" cy="27.0455" r="27.0455" fill="url(#paint0_radial_1739_47711)"/>
<path id="vector_2" d="M9.18021 47.3938C9.14331 47.3668 9.1055 47.3325 9.06767 47.291C8.36758 46.6541 7.22729 45.6495 6.03569 44.1312C5.00657 41.8989 5.58992 38.1494 8.12251 32.8553C11.6958 25.3857 17.4131 17.8017 19.7572 15.1115C19.0902 14.3674 17.0244 12.3298 14.0971 10.1318C11.1698 7.93388 9.03727 7.70875 8.29402 7.8423C8.9801 7.09821 10.5809 5.69588 11.9245 4.75145C16.0867 2.69088 23.7784 6.17286 27.0754 8.15711V21.8084C18.6709 28.2763 10.8954 38.2643 9.32314 42.1565C8.12313 45.1271 8.59752 46.7746 9.06767 47.291C9.10656 47.3264 9.1441 47.3606 9.18021 47.3938Z" fill="url(#paint1_linear_1739_47711)"/>
<path id="vector_3" d="M9.17896 47.3935C9.14206 47.3665 9.10425 47.3322 9.06642 47.2907C8.36634 46.6538 7.22604 45.6492 6.03444 44.1309C5.00532 41.8986 5.58866 38.1491 8.12125 32.855C12.2698 24.183 19.756 15.1112 19.756 15.1112C19.756 15.1112 21.0927 18.4305 24.1263 24.183C16.3132 31.1089 10.8941 38.264 9.32188 42.1562C8.12187 45.1268 8.59627 46.7744 9.06642 47.2907C9.10531 47.3261 9.14285 47.3603 9.17896 47.3935Z" fill="url(#paint2_linear_1739_47711)"/>
<path id="vector_4" d="M44.9705 47.3939C45.0074 47.3669 45.0452 47.3326 45.083 47.2911C45.7831 46.6542 46.9234 45.6496 48.115 44.1313C49.1441 41.899 48.5608 38.1495 46.0282 32.8554C42.4549 25.3859 36.7376 17.8018 34.3935 15.1116C35.0605 14.3675 37.1263 12.3299 40.0536 10.1319C42.9809 7.934 45.1134 7.70886 45.8567 7.84241C45.1706 7.09832 43.5698 5.69599 42.2262 4.75156C38.064 2.69099 30.3723 6.17297 27.0753 8.15722V21.8085C35.4798 28.2764 43.2553 38.2644 44.8276 42.1566C46.0276 45.1272 45.5532 46.7748 45.083 47.2911C45.0442 47.3265 45.0066 47.3607 44.9705 47.3939Z" fill="url(#paint3_linear_1739_47711)"/>
<path id="vector_5" d="M44.9692 47.3936C45.0062 47.3666 45.044 47.3323 45.0818 47.2908C45.7819 46.6539 46.9222 45.6493 48.1138 44.131C49.1429 41.8987 48.5595 38.1492 46.027 32.8551C41.8784 24.1831 34.3922 15.1113 34.3922 15.1113C34.3922 15.1113 33.0555 18.4306 30.0219 24.1831C37.835 31.1091 43.2541 38.2641 44.8263 42.1563C46.0263 45.127 45.5519 46.7745 45.0818 47.2908C45.0429 47.3262 45.0054 47.3604 44.9692 47.3936Z" fill="url(#paint4_linear_1739_47711)"/>
</g>
<defs>
<radialGradient id="paint0_radial_1739_47711" cx="0" cy="0" r="1" gradientUnits="userSpaceOnUse" gradientTransform="translate(27.0455 24.1477) rotate(90.0548) scale(29.9432)">
<stop stop-color="#FAFAFA"/>
<stop offset="0.499976" stop-color="#EFEFEF"/>
<stop offset="0.828794" stop-color="#C0BEC0"/>
<stop offset="1" stop-color="#879288"/>
</radialGradient>
<linearGradient id="paint1_linear_1739_47711" x1="21.237" y1="5.26581" x2="21.6949" y2="20.8348" gradientUnits="userSpaceOnUse">
<stop stop-color="#00658E"/>
<stop offset="1" stop-color="#3290B6"/>
</linearGradient>
<linearGradient id="paint2_linear_1739_47711" x1="15.7408" y1="20.6062" x2="21.0068" y2="27.8183" gradientUnits="userSpaceOnUse">
<stop stop-color="#00658E"/>
<stop offset="1" stop-color="#3290B6"/>
</linearGradient>
<linearGradient id="paint3_linear_1739_47711" x1="32.9137" y1="5.26592" x2="32.4558" y2="20.8349" gradientUnits="userSpaceOnUse">
<stop stop-color="#00658E"/>
<stop offset="1" stop-color="#3290B6"/>
</linearGradient>
<linearGradient id="paint4_linear_1739_47711" x1="38.4074" y1="20.6063" x2="33.1414" y2="27.8184" gradientUnits="userSpaceOnUse">
<stop stop-color="#00658E"/>
<stop offset="1" stop-color="#3290B6"/>
</linearGradient>
</defs>
</svg>
