<svg preserveAspectRatio="none" width="100%" height="100%" overflow="visible" style="display: block;" viewBox="0 0 135 138" fill="none" xmlns="http://www.w3.org/2000/svg">
<g id="Bg">
<path id="Fill 1" d="M27.9736 20.6595L77.0558 7.508C94.942 2.71538 107.899 10.5338 112.88 29.1257L126.538 80.0958C131.519 98.6877 124.208 111.937 106.322 116.73L57.2394 129.881C39.3531 134.674 26.4433 126.843 21.4616 108.251L7.80422 57.2808C2.82253 38.6888 10.0873 25.4521 27.9736 20.6595Z" fill="url(#paint0_linear_1739_46880)"/>
<g id="Fill 2" filter="url(#filter0_f_1739_46880)">
<path d="M40.644 36.3899L73.9667 27.4611C86.11 24.2073 94.8107 29.1583 98.0239 41.1503L106.833 74.0268C110.046 86.0188 104.987 94.6568 92.8436 97.9106L59.5209 106.839C47.3776 110.093 38.7086 105.134 35.4954 93.1417L26.6861 60.2652C23.4729 48.2732 28.5007 39.6437 40.644 36.3899Z" fill="var(--fill-0, #30AD31)" fill-opacity="0.5"/>
</g>
</g>
<defs>
<filter id="filter0_f_1739_46880" x="1.0107" y="1.75679" width="131.495" height="130.786" filterUnits="userSpaceOnUse" color-interpolation-filters="sRGB">
<feFlood flood-opacity="0" result="BackgroundImageFix"/>
<feBlend mode="normal" in="SourceGraphic" in2="BackgroundImageFix" result="shape"/>
<feGaussianBlur stdDeviation="12.3636" result="effect1_foregroundBlur_1739_46880"/>
</filter>
<linearGradient id="paint0_linear_1739_46880" x1="2.30042e-06" y1="28.155" x2="100.759" y2="94.5192" gradientUnits="userSpaceOnUse">
<stop stop-color="#9BF763"/>
<stop offset="1" stop-color="#26AB5B"/>
</linearGradient>
</defs>
</svg>
