<svg preserveAspectRatio="none" width="100%" height="100%" overflow="visible" style="display: block;" viewBox="0 0 24 24" fill="none" xmlns="http://www.w3.org/2000/svg">
<g id="Group">
<path id="Vector" d="M5.71055 23.9496C4.92773 23.8559 4.0043 23.5512 3.30117 23.1527C1.48242 22.1074 0.282422 20.2887 0.0527344 18.2215C-0.0175781 17.598 -0.0175781 6.4043 0.0527344 5.78086C0.385547 2.7668 2.7668 0.385547 5.78086 0.0527344C6.4043 -0.0175781 17.598 -0.0175781 18.2215 0.0527344C21.2355 0.385547 23.6168 2.7668 23.9496 5.78086C24.0199 6.4043 24.0199 17.598 23.9496 18.2215C23.6168 21.2355 21.2355 23.6168 18.2215 23.9496C17.6684 24.0105 6.24961 24.0105 5.71055 23.9496ZM19.2668 20.8043C19.9699 20.5934 20.509 19.9746 20.6262 19.2387C20.7668 18.3715 20.2371 17.4668 19.4027 17.1527C18.6902 16.8809 17.8418 17.073 17.3262 17.6262C16.2434 18.784 16.9137 20.6543 18.4934 20.8746C18.6809 20.898 19.0605 20.8652 19.2668 20.8043ZM12.8637 18.4934C14.3121 18.3012 15.5684 17.6777 16.623 16.623C19.2012 14.0449 19.2012 9.95742 16.623 7.3793C14.0449 4.80117 9.95742 4.80117 7.3793 7.3793C4.80117 9.95742 4.80117 14.0449 7.3793 16.623C8.85586 18.0949 10.8199 18.7652 12.8637 18.4934Z" fill="var(--fill-0, #2E2E30)"/>
<path id="Vector_2" d="M18.5894 19.4683C18.4394 19.4308 18.2425 19.2152 18.2097 19.0511C18.1722 18.8355 18.2987 18.5917 18.505 18.4933C18.7206 18.3902 18.9316 18.4324 19.105 18.6105C19.3159 18.8308 19.2737 19.2199 19.0206 19.3792C18.8941 19.4589 18.7159 19.4964 18.5894 19.4683Z" fill="var(--fill-0, #2E2E30)"/>
<path id="Vector_3" d="M11.2215 17.0865C10.1293 16.9178 9.1543 16.4209 8.3668 15.6334C6.34648 13.6178 6.34648 10.3834 8.3668 8.36777C10.3824 6.34746 13.6168 6.34746 15.6324 8.36777C17.6527 10.3834 17.6527 13.6178 15.6324 15.6334C14.4652 16.8006 12.834 17.3396 11.2215 17.0865Z" fill="var(--fill-0, #2E2E30)"/>
</g>
</svg>
