<svg preserveAspectRatio="none" width="100%" height="100%" overflow="visible" style="display: block;" viewBox="0 0 27 21" fill="none" xmlns="http://www.w3.org/2000/svg">
<g id="Group">
<path id="Vector" d="M4.03516 20.7188C3.23242 20.543 2.10156 20.0039 2.10156 19.7871C2.10156 19.7285 4.03516 17.7598 6.42578 15.3809C10.9082 10.9102 10.9551 10.8691 11.7695 10.5352C12.8066 10.1191 14.1309 10.1191 15.168 10.5352C15.9824 10.8691 16.0293 10.9102 20.5176 15.3809C22.9082 17.7656 24.8359 19.7285 24.8359 19.7871C24.8359 20.0273 23.4941 20.6367 22.668 20.7656C22.416 20.8066 19.3047 20.8301 13.4102 20.8242C5.08984 20.8242 4.50391 20.8125 4.03516 20.7188Z" fill="var(--fill-0, #2E2E30)"/>
<path id="Vector_2" d="M0.525048 18.0117C0.366845 17.748 0.120751 16.9863 0.050439 16.5176C0.00942334 16.248 -0.00815478 14.1504 0.00356397 10.1367L0.0211421 4.16016L0.155908 3.7207C0.689111 1.96289 2.03091 0.632812 3.77114 0.134766L4.23989 0H13.4684H22.6969L23.1657 0.134766C24.9235 0.638672 26.277 1.99219 26.7809 3.75L26.9157 4.21875V10.4004V16.582L26.7868 17.0332C26.611 17.6309 26.3883 18.1289 26.2711 18.1699C26.2008 18.1992 25.0465 17.0859 21.9176 13.9629C17.5114 9.57422 17.3063 9.38672 16.3688 8.92383C15.4313 8.45508 14.5934 8.26758 13.4684 8.26758C12.3434 8.26758 11.5055 8.45508 10.568 8.92383C9.63052 9.38672 9.42544 9.58008 5.03091 13.957C2.69302 16.2891 0.747705 18.1934 0.706689 18.1934C0.665673 18.1934 0.583642 18.1113 0.525048 18.0117Z" fill="var(--fill-0, #2E2E30)"/>
</g>
</svg>
