<svg preserveAspectRatio="none" width="100%" height="100%" overflow="visible" style="display: block;" viewBox="0 0 162 161" fill="none" xmlns="http://www.w3.org/2000/svg">
<g id="WB" style="mix-blend-mode:plus-lighter" opacity="0.5" filter="url(#filter0_f_1739_47329)">
<path id="bg" d="M37.8898 68.1921C37.8898 57.4374 37.8898 52.0601 39.9828 47.9523C41.8238 44.3391 44.7615 41.4014 48.3748 39.5603C52.4825 37.4673 57.8599 37.4673 68.6146 37.4673H93.5784C104.333 37.4673 109.71 37.4673 113.818 39.5603C117.431 41.4014 120.369 44.3391 122.21 47.9523C124.303 52.0601 124.303 57.4374 124.303 68.1921V93.156C124.303 103.911 124.303 109.288 122.21 113.396C120.369 117.009 117.431 119.947 113.818 121.788C109.71 123.881 104.333 123.881 93.5784 123.881H68.6146C57.8599 123.881 52.4825 123.881 48.3748 121.788C44.7615 119.947 41.8238 117.009 39.9828 113.396C37.8898 109.288 37.8898 103.911 37.8898 93.156V68.1921Z" fill="url(#paint0_linear_1739_47329)"/>
<g id="camera">
<path d="M51.1927 66.823C50.2316 68.6511 50.2316 71.0443 50.2316 75.8308V85.5167C50.2316 90.3031 50.2316 92.6963 51.1927 94.5245C52.0381 96.1326 53.387 97.44 55.0462 98.2594C56.9324 99.1909 59.4016 99.1909 64.3399 99.1909H79.232C84.1704 99.1909 86.6396 99.1909 88.5258 98.2594C90.185 97.44 91.5339 96.1326 92.3793 94.5245C93.3404 92.6963 93.3404 90.3031 93.3404 85.5167V75.8308C93.3404 71.0443 93.3404 68.6511 92.3793 66.823C91.5339 65.2149 90.185 63.9074 88.5258 63.0881C86.6396 62.1566 84.1704 62.1566 79.232 62.1566H64.3399C59.4016 62.1566 56.9324 62.1566 55.0462 63.0881C53.387 63.9074 52.0381 65.2149 51.1927 66.823Z" fill="var(--fill-0, #FDFEFF)"/>
<path d="M96.7013 72.6505L106.324 64.833C108.555 63.0199 111.955 64.5577 111.955 67.3801V94.0474C111.955 96.8562 108.584 98.3986 106.346 96.613L96.7275 88.9352C95.8235 88.2137 95.2998 87.1381 95.2998 86.0031V75.5615C95.2998 74.438 95.813 73.3722 96.7013 72.6505Z" fill="var(--fill-0, #FDFEFF)"/>
</g>
</g>
<defs>
<filter id="filter0_f_1739_47329" x="-4.03432" y="-13.0343" width="172.827" height="173.949" filterUnits="userSpaceOnUse" color-interpolation-filters="sRGB">
<feFlood flood-opacity="0" result="BackgroundImageFix"/>
<feBlend mode="normal" in="SourceGraphic" in2="BackgroundImageFix" result="shape"/>
<feGaussianBlur stdDeviation="18.5172" result="effect1_foregroundBlur_1739_47329"/>
</filter>
<linearGradient id="paint0_linear_1739_47329" x1="81.0965" y1="37.4673" x2="81.0965" y2="123.881" gradientUnits="userSpaceOnUse">
<stop stop-color="#9F73ED"/>
<stop offset="1" stop-color="#FD686C"/>
</linearGradient>
</defs>
</svg>
