<svg preserveAspectRatio="none" width="100%" height="100%" overflow="visible" style="display: block;" viewBox="0 0 50 10" fill="none" xmlns="http://www.w3.org/2000/svg">
<g id="Group">
<path id="Vector" d="M6.12478 7.76569C6.12478 8.3712 6.09154 8.80045 6.02714 9.0555C5.99597 9.17992 5.92118 9.2442 5.80069 9.2442C5.48075 9.2442 5.00084 9.22553 4.35888 9.18821C3.719 9.15088 3.23701 9.13223 2.91707 9.13223C2.61375 9.13223 2.16085 9.13844 1.56044 9.15088C0.957956 9.16332 0.507131 9.16955 0.203811 9.16955C0.0957792 9.16955 0.0417633 9.11563 0.0417633 9.0078C0.0417633 8.53709 0.0583836 7.82583 0.0895466 6.87611C0.122787 5.92638 0.13733 5.21305 0.13733 4.73819C0.13733 4.23637 0.114477 3.4857 0.0687712 2.48621C0.0230655 1.48671 0.000212633 0.73606 0.000212633 0.23424C0.000212633 0.138852 0.0542285 0.0911582 0.16226 0.0911582C0.241207 0.0911582 0.359626 0.0973847 0.519596 0.109827C0.679566 0.122268 0.800063 0.128482 0.883164 0.128482C0.962111 0.128482 1.08261 0.122268 1.24673 0.109827C1.41086 0.0973847 1.53343 0.0911582 1.6103 0.0911582C1.71418 0.0911582 1.76612 0.132637 1.76612 0.213508C1.76612 0.671782 1.7495 1.36022 1.71418 2.28092C1.67886 3.20161 1.66224 3.89214 1.66224 4.35456V5.37894C1.65808 5.83721 1.65601 6.17729 1.65601 6.40331C1.65601 7.36133 1.69548 7.84242 1.77235 7.84242C3.36997 7.84242 4.57494 7.80302 5.38933 7.72629C5.42881 7.72215 5.52853 7.70764 5.6885 7.68068C5.81731 7.6558 5.91703 7.64128 5.98766 7.64128C6.07908 7.64128 6.12478 7.68275 6.12478 7.76362V7.76569Z" fill="var(--fill-0, #35B6D3)"/>
<path id="Vector_2" d="M8.55451 1.42249C8.55451 1.95334 8.25742 2.21876 7.66532 2.21876C7.07322 2.21876 6.76367 1.95334 6.76367 1.42249C6.76367 1.18402 6.85716 0.989097 7.04206 0.833575C7.2145 0.686346 7.42225 0.61377 7.66532 0.61377C7.90839 0.61377 8.11615 0.6905 8.29274 0.839802C8.46725 0.991177 8.55658 1.1861 8.55658 1.42249H8.55451ZM8.5088 3.17886C8.5088 3.51064 8.48802 4.01454 8.44647 4.6864C8.40492 5.35826 8.38415 5.86215 8.38415 6.20015C8.38415 6.51534 8.39038 6.98814 8.40285 7.61645C8.41531 8.24476 8.42154 8.71547 8.42154 9.02652C8.42154 9.11776 8.38207 9.16337 8.3052 9.16337H7.03998C6.94857 9.16337 6.90287 9.07421 6.90287 8.89795C6.90287 8.59935 6.91118 8.15144 6.92572 7.55423C6.94026 6.95702 6.94857 6.50498 6.94857 6.20223C6.94857 5.8663 6.92364 5.36033 6.87378 4.6864C6.82392 4.01246 6.79899 3.5065 6.79899 3.17057C6.79899 3.09799 6.8447 3.06066 6.93611 3.06066C7.01505 3.06066 7.13347 3.07103 7.29552 3.09384C7.45757 3.11458 7.58014 3.12702 7.66324 3.12702C7.74634 3.12702 7.86684 3.11665 8.03097 3.09384C8.19301 3.07311 8.31559 3.06066 8.39869 3.06066C8.4714 3.06066 8.5088 3.10214 8.5088 3.18301V3.17886Z" fill="var(--fill-0, #35B6D3)"/>
<path id="Vector_3" d="M16.0323 0.132716C16.0323 0.690525 16.0073 1.52413 15.9575 2.63767C15.9076 3.75122 15.8827 4.58274 15.8827 5.13641C15.8827 6.84301 15.9201 8.13489 15.9928 9.01204L15.999 9.09705C16.0032 9.1406 15.945 9.16756 15.8245 9.18208C15.7414 9.19037 15.6251 9.19037 15.4734 9.18208C15.2906 9.16963 15.2075 9.16341 15.2199 9.16341C15.1555 9.16341 15.06 9.16963 14.9332 9.18208C14.8086 9.19452 14.713 9.20073 14.6465 9.20073C14.5863 9.20073 14.551 9.05143 14.5385 8.75075C14.5281 8.45008 14.5115 8.2987 14.4907 8.29455C14.4658 8.30699 14.4325 8.33603 14.3931 8.37958C13.801 9.01826 13.1175 9.3376 12.3488 9.3376C11.4741 9.3376 10.7553 9.00582 10.1923 8.34018C9.66046 7.71394 9.39453 6.95706 9.39453 6.07162C9.39453 5.18617 9.66253 4.37746 10.2006 3.75122C10.7636 3.09387 11.497 2.76624 12.4007 2.76624C12.945 2.76624 13.4229 2.92591 13.8301 3.24525C14.017 3.40492 14.1999 3.56666 14.3827 3.73047C14.418 3.71803 14.4346 3.68694 14.4346 3.63924V1.54071C14.4346 1.39763 14.4284 1.18197 14.4159 0.893737C14.4035 0.603428 14.3972 0.385702 14.3972 0.238473C14.3972 0.134792 14.4326 0.0829506 14.5011 0.0829506C14.6611 0.0829506 14.9 0.0684326 15.2158 0.0414753C15.5316 0.014518 15.7684 0 15.9242 0C15.9969 0 16.0343 0.0456271 16.0343 0.136867L16.0323 0.132716ZM14.4097 6.03014C14.4097 5.51173 14.2497 5.05553 13.9298 4.66361C13.587 4.24473 13.1632 4.0353 12.6583 4.0353C12.1265 4.0353 11.6861 4.24267 11.3412 4.6574C11.0129 5.04724 10.8467 5.51173 10.8467 6.0571C10.8467 6.60247 11.0171 7.02756 11.3599 7.41118C11.711 7.81761 12.1431 8.02083 12.6583 8.02083C13.1736 8.02083 13.6057 7.81555 13.9443 7.40497C14.256 7.02134 14.4118 6.56307 14.4118 6.03222L14.4097 6.03014Z" fill="var(--fill-0, #35B6D3)"/>
<path id="Vector_4" d="M26.7631 1.41015C26.7631 1.49309 26.7174 1.53249 26.626 1.53249C26.2894 1.53249 25.7347 1.51383 24.964 1.47443C24.2451 1.43918 23.6904 1.42674 23.3019 1.43503L22.8283 1.44125C22.5249 1.44539 22.365 1.45162 22.3484 1.45991C22.2611 1.49517 22.2196 1.62995 22.2196 1.86842V3.42987C22.2196 3.72433 22.2819 3.86948 22.4086 3.86948C22.8283 3.86948 23.4619 3.85081 24.3075 3.81141C25.153 3.77201 25.7867 3.75336 26.2063 3.75336C26.2977 3.75336 26.3435 3.78861 26.3435 3.85704C26.3435 3.92962 26.3372 4.03951 26.3268 4.18467C26.3164 4.32982 26.3102 4.43765 26.3102 4.5123C26.3102 4.5911 26.3144 4.70723 26.3227 4.86482C26.331 5.02242 26.3351 5.14062 26.3351 5.21735C26.3351 5.26919 26.2894 5.29615 26.198 5.29615C25.8989 5.29615 25.446 5.28785 24.8372 5.27126C24.2285 5.25467 23.7735 5.24638 23.4702 5.24638C22.9114 5.24638 22.5956 5.25053 22.5229 5.25882C22.3276 5.27956 22.2299 5.36042 22.2299 5.49936C22.2299 5.8892 22.2403 6.47189 22.2632 7.24951C22.284 8.02712 22.2964 8.60982 22.2964 8.99966C22.2964 9.12823 22.2445 9.19458 22.1406 9.19458C22.0533 9.19458 21.9245 9.18421 21.7542 9.16555C21.5838 9.14689 21.4529 9.13651 21.3615 9.13651C21.2888 9.13651 21.1746 9.14274 21.025 9.15518C20.8733 9.16762 20.7611 9.17384 20.6884 9.17384C20.5804 9.17384 20.5264 9.12616 20.5264 9.03077C20.5264 8.55176 20.5471 7.83013 20.5887 6.86589C20.6302 5.90165 20.651 5.1821 20.651 4.70101C20.651 4.25518 20.6053 2.80985 20.5139 0.358813V0.273787C20.5097 0.182547 20.5638 0.130706 20.6759 0.118264C20.7113 0.118264 20.9855 0.124491 21.5007 0.136933C22.1801 0.149374 22.8096 0.151441 23.3892 0.143147C24.1724 0.134852 25.1696 0.0913069 26.3829 0.0145823C26.5471 0.0021405 26.6405 0.0726503 26.6613 0.228173C26.6572 0.344297 26.6655 0.522629 26.6862 0.759024C26.7382 1.09081 26.7652 1.30854 26.7652 1.406L26.7631 1.41015Z" fill="var(--fill-0, #35B6D3)"/>
<path id="Vector_5" d="M33.4839 6.01556C33.4839 6.91759 33.1869 7.68899 32.5948 8.32974C31.9881 8.99123 31.2381 9.32094 30.3427 9.32094C29.4473 9.32094 28.689 8.9933 28.0824 8.33596C27.4903 7.70142 27.1932 6.93211 27.1932 6.03007C27.1932 5.12804 27.4903 4.35872 28.0824 3.72419C28.6932 3.07721 29.4452 2.75165 30.3427 2.75165C31.2402 2.75165 31.984 3.07514 32.5885 3.72419C33.1869 4.35457 33.4839 5.11975 33.4839 6.01763V6.01556ZM32.1149 6.028C32.1149 5.50129 31.9528 5.05131 31.6287 4.68013C31.2922 4.28614 30.8621 4.09123 30.3427 4.09123C29.8233 4.09123 29.3933 4.28615 29.0505 4.67392C28.7264 5.04925 28.5643 5.50129 28.5643 6.028C28.5643 6.5547 28.7285 6.99639 29.0588 7.37586C29.4058 7.77815 29.8337 7.9793 30.3448 7.9793C30.8559 7.9793 31.288 7.77815 31.6308 7.37586C31.9549 6.99639 32.1169 6.54641 32.1169 6.028H32.1149Z" fill="var(--fill-0, #35B6D3)"/>
<path id="Vector_6" d="M38.1114 3.08772C38.1114 3.56259 38.0782 3.99598 38.0138 4.38375C38.0013 4.48328 37.9577 4.53306 37.885 4.53306C37.7936 4.53306 37.6564 4.52269 37.4736 4.50402C37.2887 4.48536 37.1495 4.47499 37.054 4.47499C36.5096 4.47499 36.1606 4.62844 36.0089 4.93534C35.9175 5.12197 35.8718 5.50766 35.8718 6.0945V6.80783C35.8718 7.05045 35.8822 7.41748 35.9009 7.90893C35.9196 8.40038 35.93 8.76949 35.93 9.01003C35.93 9.12616 35.8801 9.18422 35.7804 9.18422C35.6454 9.18422 35.4439 9.18214 35.1696 9.178C34.8954 9.17385 34.6939 9.17178 34.5588 9.17178C34.4591 9.17178 34.4092 9.11786 34.4092 9.01003C34.4092 8.65959 34.4155 8.13289 34.4259 7.42992C34.4363 6.72489 34.4425 6.19611 34.4425 5.84152C34.4425 4.7736 34.3428 3.91718 34.1433 3.26813C34.135 3.23288 34.1309 3.20799 34.1309 3.18933C34.1309 3.13749 34.1579 3.10017 34.216 3.07943C34.376 3.06284 34.6004 3.03589 34.8912 3.00063C35.3587 2.91354 35.5747 2.87207 35.5394 2.87207C35.608 2.87207 35.6537 3.00063 35.6765 3.25361C35.6973 3.50867 35.7368 3.63517 35.7929 3.63517C35.8012 3.63517 35.8116 3.63102 35.8261 3.62273C36.0027 3.51075 36.1814 3.39877 36.358 3.2868C36.5533 3.17067 36.7527 3.08358 36.9563 3.02759C37.1246 2.97575 37.3406 2.94879 37.6045 2.94879C37.9411 2.94879 38.1114 2.99441 38.1114 3.08565V3.08772Z" fill="var(--fill-0, #35B6D3)"/>
<path id="Vector_7" d="M43.3584 3.29494C43.3584 3.39033 43.3085 3.60184 43.2088 3.92948C43.1091 4.25711 43.0405 4.423 43.001 4.423C42.8057 4.33591 42.6105 4.25089 42.4131 4.1638C42.2157 4.07671 42.0017 4.03523 41.767 4.03523C41.2351 4.03523 40.7905 4.23224 40.4353 4.62415C40.08 5.01814 39.9034 5.48263 39.9034 6.01763C39.9034 6.55263 40.08 7.00054 40.4353 7.38416C40.7988 7.7823 41.2414 7.98136 41.767 7.98136C42.0578 7.98136 42.3425 7.91086 42.6229 7.76778C42.9034 7.6247 43.028 7.55419 42.9927 7.55419C43.0488 7.55419 43.1111 7.73668 43.1818 8.0975C43.2462 8.42513 43.2794 8.65323 43.2794 8.77764C43.2794 8.91243 43.026 9.04306 42.519 9.1737C42.0952 9.28153 41.7815 9.33545 41.5779 9.33545C40.6867 9.33545 39.9325 9.00367 39.3176 8.33803C38.7151 7.69106 38.4159 6.91759 38.4159 6.01763C38.4159 5.11767 38.7109 4.32347 39.2989 3.68479C39.9055 3.02745 40.6597 2.69981 41.5655 2.69981C42.1721 2.69981 42.7247 2.85325 43.2275 3.16015C43.3147 3.21199 43.3563 3.25762 43.3563 3.29702L43.3584 3.29494Z" fill="var(--fill-0, #35B6D3)"/>
<path id="Vector_8" d="M49.6679 5.69206C49.6679 6.0114 49.5287 6.22499 49.2524 6.33282C49.0655 6.40125 47.7275 6.5298 45.2345 6.71436C45.2906 7.09383 45.5004 7.4194 45.864 7.6869C46.2109 7.94195 46.5828 8.06845 46.9817 8.06845C47.6652 8.06845 48.2926 7.84864 48.8639 7.40696C48.9325 7.35097 49.0031 7.29498 49.0717 7.23899C49.107 7.23899 49.1299 7.24314 49.1402 7.25144C49.1506 7.25973 49.2317 7.4111 49.3833 7.70141C49.535 7.9938 49.6098 8.14932 49.6098 8.17213C49.6098 8.19702 49.5745 8.24885 49.5059 8.32143C48.8702 8.99536 48.0537 9.33336 47.0586 9.33336C46.0634 9.33336 45.2532 9.03476 44.6569 8.43548C44.0586 7.83827 43.7615 7.03992 43.7615 6.04043C43.7615 5.15084 44.0482 4.3753 44.6175 3.71381C45.2199 3.02744 45.9575 2.68321 46.8321 2.68321C47.6465 2.68321 48.3259 2.98181 48.8702 3.57694C49.402 4.15549 49.6679 4.86053 49.6679 5.68998V5.69206ZM48.1223 5.296C48.1223 4.93726 47.981 4.61999 47.6964 4.34419C47.4117 4.0684 47.0939 3.92946 46.7386 3.92946C46.3397 3.92946 45.9866 4.08913 45.677 4.40847C45.3674 4.72781 45.2137 5.08655 45.2137 5.48469C45.2137 5.57593 45.2927 5.62156 45.4464 5.62156C46.0863 5.62156 46.8529 5.55728 47.7441 5.42664C47.9955 5.39139 48.1202 5.34784 48.1202 5.29807L48.1223 5.296Z" fill="var(--fill-0, #35B6D3)"/>
</g>
</svg>
