<svg preserveAspectRatio="none" width="100%" height="100%" overflow="visible" style="display: block;" viewBox="0 0 88 88" fill="none" xmlns="http://www.w3.org/2000/svg">
<g id="Group">
<path id="Vector" d="M43.8176 53.2563C28.3618 47.62 17.2653 33.177 15.9443 16.9286L15.6361 13.4499H44.1258C66.8031 13.4499 72.5715 13.582 72.3073 14.0224C71.3826 15.5635 45.711 53.9608 45.5789 53.9168C45.5349 53.9168 44.7423 53.6085 43.8176 53.2563Z" fill="var(--fill-0, white)"/>
<path id="Vector_2" d="M27.969 76.2232L35.2284 65.3342H48.0457H60.863L53.6036 76.2232L46.3442 87.1122H33.5269H20.7096L27.969 76.2232Z" fill="url(#paint0_linear_1739_47527)"/>
<path id="Vector_3" d="M52.6053 86.4769C52.8322 86.1139 56.0989 81.1912 59.842 75.5652L66.6476 65.3567L76.9468 65.334H87.2461L87.0873 67.1035C86.6335 72.4119 84.5919 76.7675 80.7126 80.6467C78.308 83.0514 76.1755 84.4806 73.3172 85.6149C70.0278 86.8852 69.5514 86.9533 60.5452 87.044L52.1743 87.1575L52.6053 86.4769Z" fill="url(#paint1_linear_1739_47527)"/>
<path id="Vector_4" d="M14.5187 85.8418C6.55611 82.9381 0.839369 75.4972 0.158804 67.1263L5.17934e-06 65.3341H14.6775C26.3606 65.3341 29.3324 65.4022 29.1962 65.629C28.7198 66.423 15.4942 86.2048 15.4261 86.1821C15.4035 86.1821 14.9951 86.0233 14.5187 85.8418Z" fill="url(#paint2_linear_1739_47527)"/>
<path id="Vector_5" d="M0.134903 39.4274C0.202959 20.2582 0.24833 18.1257 0.588613 16.81C1.7002 12.7039 3.46967 9.55062 6.30536 6.69225C7.43963 5.53529 8.80076 4.28759 9.3679 3.92462C10.7971 2.97183 13.3832 1.65607 14.9712 1.11162C18.1699 0.0227127 18.5102 2.72367e-05 43.623 2.72367e-05C69.3937 2.72367e-05 69.1669 2.72367e-05 72.8873 1.33847C78.536 3.40285 83.4361 8.21218 85.6819 13.8609C87.1111 17.5132 87.043 16.2428 87.1111 39.4274L87.2018 60.5703H43.623H0.0441607L0.134903 39.4274ZM46.1638 39.5408C55.6236 34.2778 57.4838 33.1662 57.8241 32.5537C58.3005 31.6463 58.119 30.444 57.3931 29.7861C57.1209 29.5365 51.9032 26.5421 45.8008 23.1619C33.528 16.3563 33.5506 16.379 32.2576 17.672L31.5997 18.3299V31.3514C31.5997 43.0117 31.6451 44.4182 31.9627 44.8946C32.4391 45.5752 33.596 46.0743 34.3219 45.9155C34.6395 45.8474 39.9706 42.9664 46.1638 39.5408Z" fill="url(#paint3_linear_1739_47527)"/>
</g>
<defs>
<linearGradient id="paint0_linear_1739_47527" x1="59.4289" y1="66.1119" x2="41.2612" y2="97.7478" gradientUnits="userSpaceOnUse">
<stop stop-color="#DE2AC6"/>
<stop offset="1" stop-color="#E43E0C"/>
</linearGradient>
<linearGradient id="paint1_linear_1739_47527" x1="85.9935" y1="66.1134" x2="66.6256" y2="95.5097" gradientUnits="userSpaceOnUse">
<stop stop-color="#DE2AC6"/>
<stop offset="1" stop-color="#E43E0C"/>
</linearGradient>
<linearGradient id="paint2_linear_1739_47527" x1="28.1578" y1="66.0787" x2="8.78467" y2="91.7061" gradientUnits="userSpaceOnUse">
<stop stop-color="#DE2AC6"/>
<stop offset="1" stop-color="#E43E0C"/>
</linearGradient>
<linearGradient id="paint3_linear_1739_47527" x1="84.0891" y1="2.16325" x2="28.2352" y2="78.0693" gradientUnits="userSpaceOnUse">
<stop stop-color="#DE2AC6"/>
<stop offset="1" stop-color="#E43E0C"/>
</linearGradient>
</defs>
</svg>
