<svg preserveAspectRatio="none" width="100%" height="100%" overflow="visible" style="display: block;" viewBox="0 0 84 84" fill="none" xmlns="http://www.w3.org/2000/svg">
<g id="tiktok">
<path id="vector" d="M21.9844 51.4861C22.3909 48.1203 23.7713 46.2359 26.3726 44.3041C30.0947 41.6877 34.7441 43.1677 34.7441 43.1677V34.388C35.8744 34.3591 37.0051 34.4261 38.1231 34.5882V45.8868C38.1231 45.8868 33.4752 44.4069 29.7531 47.0246C27.1532 48.955 25.7699 50.8408 25.3648 54.2066C25.3521 56.0343 25.6951 58.4233 27.2746 60.489C26.8841 60.2888 26.486 60.0607 26.0805 59.8045C22.6012 57.4682 21.9674 53.9631 21.9844 51.4861ZM57.3206 18.1543C54.7602 15.3486 53.7919 12.5158 53.4418 10.5258H56.6628C56.6628 10.5258 56.0206 15.7436 60.701 20.8748L60.766 20.9438C59.5045 20.1503 58.3477 19.2137 57.3206 18.1543ZM72.8369 26.1088V37.1802C72.8369 37.1802 68.7267 37.0192 65.685 36.2454C61.4378 35.1631 58.708 33.5032 58.708 33.5032C58.708 33.5032 56.8223 32.3195 56.6699 32.237V55.0995C56.6699 56.3724 56.3212 59.5516 55.2584 62.2031C53.8709 65.6717 51.7297 67.9484 51.3359 68.4138C51.3359 68.4138 48.7318 71.4914 44.1374 73.5639C39.9962 75.4335 36.3602 75.3862 35.2734 75.4335C35.2734 75.4335 28.9881 75.6824 23.3323 72.0069C22.1093 71.1967 20.9677 70.2791 19.9222 69.2661L19.9504 69.2863C25.6076 72.9619 31.8915 72.713 31.8915 72.713C32.9797 72.6657 36.6157 72.713 40.7555 70.8434C45.3456 68.7709 47.954 65.6933 47.954 65.6933C48.3436 65.2279 50.4947 62.9512 51.8765 59.4812C52.9365 56.8311 53.288 53.6506 53.288 52.3776V29.5179C53.4404 29.6017 55.3247 30.7855 55.3247 30.7855C55.3247 30.7855 58.0559 32.4467 62.3031 33.5276C65.3462 34.3014 69.455 34.4624 69.455 34.4624V25.7868C70.8608 26.102 72.0592 26.1873 72.8369 26.1088Z" fill="var(--fill-0, #EE1D52)"/>
<path id="vector_2" d="M69.4572 25.7865V34.4593C69.4572 34.4593 65.3484 34.2983 62.3053 33.5245C58.0582 32.4423 55.327 30.7824 55.327 30.7824C55.327 30.7824 53.4427 29.5987 53.2902 29.5148V52.3799C53.2902 53.6529 52.9416 56.8334 51.8787 59.4835C50.4913 62.9535 48.3501 65.2303 47.9563 65.6956C47.9563 65.6956 45.3507 68.7733 40.7577 70.8458C36.6179 72.7153 32.9819 72.668 31.8937 72.7153C31.8937 72.7153 25.6098 72.9643 19.9526 69.2887L19.9244 69.2684C19.3271 68.69 18.7649 68.0794 18.2405 67.4394C16.4352 65.2384 15.3287 62.6356 15.0506 61.8929C15.0501 61.8897 15.0501 61.8866 15.0506 61.8834C14.6032 60.5928 13.6631 57.4935 13.7916 54.4917C14.0188 49.1954 15.882 45.9446 16.3746 45.1302C17.6792 42.9094 19.376 40.9224 21.3895 39.2577C23.1663 37.8212 25.1803 36.6782 27.3488 35.8757C29.693 34.9334 32.2032 34.4284 34.7449 34.3876V43.1673C34.7449 43.1673 30.0955 41.6928 26.3748 44.3037C23.7735 46.2355 22.3931 48.12 21.9866 51.4857C21.9696 53.9627 22.6034 57.4679 26.0798 59.8055C26.4854 60.0625 26.8834 60.2907 27.2739 60.49C27.8813 61.2795 28.6205 61.9674 29.4617 62.526C32.8577 64.6756 35.7033 64.8258 39.342 63.4297C41.7684 62.4962 43.5948 60.3926 44.4417 58.0617C44.9738 56.6061 44.9668 55.141 44.9668 53.6259V10.5254H53.4356C53.7856 12.5154 54.7539 15.3482 57.3143 18.1539C58.3414 19.2133 59.4983 20.1499 60.7597 20.9434C61.1324 21.329 63.0378 23.2351 65.4839 24.4052C66.7487 25.0101 68.0819 25.4736 69.4572 25.7865V25.7865Z" fill="var(--fill-0, #FDFEFF)"/>
<path id="vector_3" d="M11.6788 59.1967V59.2034L11.8889 59.773C11.8648 59.7067 11.7867 59.5051 11.6788 59.1967Z" fill="var(--fill-0, #35B6D3)"/>
<path id="vector_4" d="M27.3466 35.8757C25.1781 36.6782 23.1642 37.8212 21.3874 39.2577C19.3732 40.9262 17.6768 42.9173 16.3738 45.1424C15.8812 45.9541 14.0181 49.2076 13.7908 54.5038C13.6624 57.5057 14.6024 60.605 15.0498 61.8956C15.0494 61.8987 15.0494 61.9019 15.0498 61.905C15.3321 62.641 16.4345 65.2438 18.2398 67.4515C18.7642 68.0915 19.3264 68.7022 19.9237 69.2805C18.01 68.012 16.3033 66.4784 14.8593 64.7297C13.0695 62.5476 11.9658 59.9719 11.6778 59.2116C11.6775 59.2062 11.6775 59.2008 11.6778 59.1954V59.1859C11.229 57.8967 10.2861 54.796 10.4174 51.7901C10.6446 46.4938 12.5078 43.243 13.0004 42.4287C14.303 40.2034 15.9994 38.2121 18.0139 36.5439C19.7904 35.1069 21.8044 33.9639 23.9732 33.1619C25.3259 32.624 26.7352 32.2271 28.1765 31.9782C30.3487 31.6148 32.5673 31.5833 34.7498 31.8849V34.3876C32.2057 34.4275 29.693 34.9325 27.3466 35.8757Z" fill="var(--fill-0, #35B6D3)"/>
<path id="vector_5" d="M53.4394 10.5256H44.9706V53.6274C44.9706 55.1425 44.9706 56.6035 44.4455 58.0632C43.5902 60.3928 41.7708 62.4964 39.3459 63.4298C35.7057 64.8313 32.8602 64.6757 29.4656 62.5261C28.6229 61.97 27.8818 61.2844 27.2722 60.4969C30.1643 61.9755 32.7529 61.9498 35.9598 60.7161C38.3833 59.7826 40.2055 57.679 41.058 55.3481C41.5915 53.8925 41.5845 52.4274 41.5845 50.9136V7.80372H53.2785C53.2785 7.80372 53.1473 8.87514 53.4394 10.5256ZM69.454 23.3881V25.7866C68.0811 25.4732 66.7503 25.0098 65.4878 24.4054C63.0417 23.2352 61.1362 21.3291 60.7636 20.9435C61.196 21.2156 61.6446 21.4632 62.1073 21.6849C65.0813 23.108 68.0101 23.5328 69.454 23.3881Z" fill="var(--fill-0, #35B6D3)"/>
</g>
</svg>
