<svg preserveAspectRatio="none" width="100%" height="100%" overflow="visible" style="display: block;" viewBox="0 0 75 75" fill="none" xmlns="http://www.w3.org/2000/svg">
<g id="avito logo">
<path id="bg" d="M4.62639 27.6729C4.62639 19.6069 4.62639 15.5739 6.19614 12.4931C7.57693 9.78316 9.78019 7.5799 12.4901 6.19911C15.571 4.62936 19.604 4.62936 27.67 4.62936L46.3929 4.62936C54.4589 4.62936 58.4919 4.62936 61.5727 6.19911C64.2826 7.5799 66.4859 9.78316 67.8667 12.4931C69.4364 15.5739 69.4364 19.6069 69.4364 27.6729V46.3958C69.4364 54.4618 69.4364 58.4948 67.8667 61.5757C66.4859 64.2856 64.2826 66.4889 61.5727 67.8697C58.4919 69.4394 54.4589 69.4394 46.3929 69.4394H27.67C19.604 69.4394 15.571 69.4394 12.4901 67.8697C9.78019 66.4889 7.57693 64.2856 6.19614 61.5757C4.62639 58.4948 4.62639 54.4618 4.62639 46.3958L4.62639 27.6729Z" fill="url(#paint0_linear_1739_46448)"/>
<g id="avito logo_2">
<path id="c" d="M48.4532 62.1645C39.5048 62.1645 32.2507 54.9103 32.2507 45.9619C32.2507 37.0135 39.5048 29.7594 48.4532 29.7594C57.4016 29.7594 64.6557 37.0135 64.6557 45.9619C64.6557 54.9103 57.4016 62.1645 48.4532 62.1645Z" fill="var(--fill-0, #99CE26)"/>
<path id="d" d="M45.1388 25.8639C42.156 25.8639 39.7379 23.4459 39.7379 20.4631C39.7379 17.4803 42.156 15.0623 45.1388 15.0623C48.1216 15.0623 50.5396 17.4803 50.5396 20.4631C50.5396 23.4459 48.1216 25.8639 45.1388 25.8639Z" fill="var(--fill-0, #FD6165)"/>
<path id="e" d="M22.9043 37.5785C15.6604 37.5785 9.788 31.7062 9.788 24.4622C9.788 17.2183 15.6604 11.3459 22.9043 11.3459C30.1483 11.3459 36.0206 17.2183 36.0206 24.4622C36.0206 31.7062 30.1483 37.5785 22.9043 37.5785Z" fill="var(--fill-0, #00AFF6)"/>
<path id="f" d="M19.1936 59.9918C14.0802 59.9918 9.93501 55.8465 9.93501 50.7332C9.93501 45.6198 14.0802 41.4746 19.1936 41.4746C24.307 41.4746 28.4522 45.6198 28.4522 50.7332C28.4522 55.8465 24.307 59.9918 19.1936 59.9918Z" fill="var(--fill-0, #A269F6)"/>
</g>
</g>
<defs>
<linearGradient id="paint0_linear_1739_46448" x1="37.0314" y1="4.62936" x2="37.0314" y2="69.4394" gradientUnits="userSpaceOnUse">
<stop stop-color="#F3F3F3"/>
<stop offset="1" stop-color="#E9E9E9"/>
</linearGradient>
</defs>
</svg>
