<svg preserveAspectRatio="none" width="100%" height="100%" overflow="visible" style="display: block;" viewBox="0 0 164 164" fill="none" xmlns="http://www.w3.org/2000/svg">
<g id="WB" style="mix-blend-mode:plus-lighter" opacity="0.5" filter="url(#filter0_f_1739_46017)">
<path id="bg" d="M37.9655 68.8821C37.9655 57.9595 37.9655 52.4981 40.0912 48.3263C41.961 44.6565 44.9446 41.673 48.6143 39.8032C52.7862 37.6775 58.2475 37.6775 69.1701 37.6775H94.5239C105.447 37.6775 110.908 37.6775 115.08 39.8032C118.749 41.673 121.733 44.6565 123.603 48.3263C125.729 52.4981 125.729 57.9595 125.729 68.8821V94.2359C125.729 105.159 125.729 110.62 123.603 114.792C121.733 118.461 118.749 121.445 115.08 123.315C110.908 125.44 105.447 125.44 94.5239 125.44H69.1701C58.2475 125.44 52.7862 125.44 48.6143 123.315C44.9446 121.445 41.961 118.461 40.0912 114.792C37.9655 110.62 37.9655 105.159 37.9655 94.2359V68.8821Z" fill="url(#paint0_linear_1739_46017)"/>
<g id="camera">
<path d="M51.4766 67.4917C50.5005 69.3484 50.5005 71.779 50.5005 76.6402V86.4773C50.5005 91.3385 50.5005 93.7691 51.4766 95.6258C52.3352 97.2591 53.7052 98.5869 55.3902 99.4191C57.3059 100.365 59.8137 100.365 64.8292 100.365H79.9538C84.9693 100.365 87.4771 100.365 89.3928 99.4191C91.0778 98.5869 92.4478 97.2591 93.3064 95.6258C94.2825 93.7691 94.2825 91.3385 94.2825 86.4773V76.6402C94.2825 71.779 94.2825 69.3484 93.3064 67.4917C92.4478 65.8585 91.0778 64.5306 89.3928 63.6985C87.4771 62.7524 84.9693 62.7524 79.9538 62.7524H64.8292C59.8137 62.7524 57.3059 62.7524 55.3902 63.6985C53.7052 64.5306 52.3352 65.8585 51.4766 67.4917Z" fill="var(--fill-0, white)"/>
<path d="M97.6959 73.4103L107.468 65.4706C109.735 63.6292 113.188 65.1911 113.188 68.0575V95.1413C113.188 97.994 109.764 99.5605 107.492 97.747L97.7225 89.9493C96.8045 89.2165 96.2726 88.1241 96.2726 86.9714V76.3667C96.2726 75.2257 96.7937 74.1432 97.6959 73.4103Z" fill="var(--fill-0, white)"/>
</g>
</g>
<defs>
<filter id="filter0_f_1739_46017" x="-4.61271" y="-13.6127" width="175.526" height="176.666" filterUnits="userSpaceOnUse" color-interpolation-filters="sRGB">
<feFlood flood-opacity="0" result="BackgroundImageFix"/>
<feBlend mode="normal" in="SourceGraphic" in2="BackgroundImageFix" result="shape"/>
<feGaussianBlur stdDeviation="18.8064" result="effect1_foregroundBlur_1739_46017"/>
</filter>
<linearGradient id="paint0_linear_1739_46017" x1="81.847" y1="37.6775" x2="81.847" y2="125.44" gradientUnits="userSpaceOnUse">
<stop stop-color="#FF200C"/>
<stop offset="1" stop-color="#35032A"/>
</linearGradient>
</defs>
</svg>
