<svg preserveAspectRatio="none" width="100%" height="100%" overflow="visible" style="display: block;" viewBox="0 0 73 73" fill="none" xmlns="http://www.w3.org/2000/svg">
<g id="xbox">
<circle id="vector" opacity="0.852" cx="36.0606" cy="36.0606" r="36.0606" fill="url(#paint0_radial_1739_47381)"/>
<path id="vector_2" d="M12.2373 63.1916C12.1881 63.1556 12.1377 63.11 12.0873 63.0546C11.1538 62.2054 9.63345 60.8659 8.04465 58.8415C6.67249 55.8651 7.45028 50.8657 10.8271 43.807C15.5915 33.8476 23.2146 23.7355 26.3401 20.1486C25.4507 19.1565 22.6962 16.4396 18.7932 13.509C14.8902 10.5784 12.0468 10.2783 11.0558 10.4563C11.9705 9.4642 14.105 7.59443 15.8964 6.33519C21.446 3.58777 31.7016 8.23041 36.0976 10.8761V29.0778C24.8916 37.7016 14.5243 51.019 12.4279 56.2086C10.8279 60.1694 11.4604 62.3661 12.0873 63.0546C12.1391 63.1017 12.1892 63.1474 12.2373 63.1916Z" fill="url(#paint1_linear_1739_47381)"/>
<path id="vector_3" d="M12.2374 63.1911C12.1881 63.1551 12.1377 63.1095 12.0873 63.0541C11.1539 62.2049 9.63346 60.8655 8.04465 58.841C6.6725 55.8647 7.45029 50.8653 10.8271 43.8065C16.3584 32.2439 26.3401 20.1482 26.3401 20.1482C26.3401 20.1482 28.1223 24.5738 32.1672 32.2439C21.7497 41.4784 14.5243 51.0185 12.4279 56.2081C10.8279 60.169 11.4604 62.3657 12.0873 63.0541C12.1392 63.1013 12.1892 63.1469 12.2374 63.1911Z" fill="url(#paint2_linear_1739_47381)"/>
<path id="vector_4" d="M59.9588 63.1919C60.008 63.1559 60.0584 63.1102 60.1089 63.0548C61.0423 62.2057 62.5627 60.8662 64.1515 58.8418C65.5236 55.8654 64.7458 50.866 61.3691 43.8073C56.6047 33.8479 48.9816 23.7358 45.8561 20.1489C46.7454 19.1568 49.4999 16.4399 53.4029 13.5093C57.306 10.5787 60.1494 10.2785 61.1404 10.4566C60.2256 9.46449 58.0911 7.59472 56.2997 6.33548C50.7501 3.58806 40.4945 8.2307 36.0985 10.8764V29.078C47.3045 37.7019 57.6719 51.0193 59.7682 56.2088C61.3682 60.1697 60.7357 62.3664 60.1089 63.0548C60.057 63.102 60.0069 63.1477 59.9588 63.1919Z" fill="url(#paint3_linear_1739_47381)"/>
<path id="vector_5" d="M59.9558 63.1909C60.005 63.1549 60.0554 63.1093 60.1059 63.0539C61.0393 62.2047 62.5597 60.8652 64.1485 58.8408C65.5207 55.8644 64.7429 50.865 61.3661 43.8063C55.8347 32.2436 45.8531 20.1479 45.8531 20.1479C45.8531 20.1479 44.0709 24.5736 40.026 32.2436C50.4435 41.4782 57.6689 51.0183 59.7653 56.2079C61.3653 60.1687 60.7327 62.3654 60.1059 63.0539C60.054 63.101 60.004 63.1467 59.9558 63.1909Z" fill="url(#paint4_linear_1739_47381)"/>
</g>
<defs>
<radialGradient id="paint0_radial_1739_47381" cx="0" cy="0" r="1" gradientUnits="userSpaceOnUse" gradientTransform="translate(36.0606 32.197) rotate(90.0548) scale(39.9243)">
<stop stop-color="#FAFAFA"/>
<stop offset="0.499976" stop-color="#EFEFEF"/>
<stop offset="0.828794" stop-color="#C0BEC0"/>
<stop offset="1" stop-color="#B9B9B9"/>
</radialGradient>
<linearGradient id="paint1_linear_1739_47381" x1="28.3131" y1="7.021" x2="28.9236" y2="27.7797" gradientUnits="userSpaceOnUse">
<stop stop-color="#E6E6E6"/>
<stop offset="1" stop-color="#F6F6F6"/>
</linearGradient>
<linearGradient id="paint2_linear_1739_47381" x1="20.9865" y1="27.4748" x2="28.0078" y2="37.0909" gradientUnits="userSpaceOnUse">
<stop stop-color="#CACACA"/>
<stop offset="1" stop-color="#E9E9E9"/>
</linearGradient>
<linearGradient id="paint3_linear_1739_47381" x1="43.8831" y1="7.02129" x2="43.2725" y2="27.78" gradientUnits="userSpaceOnUse">
<stop stop-color="#E6E6E6"/>
<stop offset="1" stop-color="#F6F6F6"/>
</linearGradient>
<linearGradient id="paint4_linear_1739_47381" x1="51.2067" y1="27.4745" x2="44.1854" y2="37.0907" gradientUnits="userSpaceOnUse">
<stop stop-color="#CACACA"/>
<stop offset="1" stop-color="#E9E9E9"/>
</linearGradient>
</defs>
</svg>
