<svg preserveAspectRatio="none" width="100%" height="100%" overflow="visible" style="display: block;" viewBox="0 0 87 87" fill="none" xmlns="http://www.w3.org/2000/svg">
<path id="bg" d="M0 30.7248C0 19.9701 0 14.5928 2.093 10.485C3.93405 6.87174 6.87174 3.93405 10.485 2.093C14.5928 0 19.9701 0 30.7248 0H55.6886C66.4433 0 71.8207 0 75.9284 2.093C79.5417 3.93405 82.4793 6.87174 84.3204 10.485C86.4134 14.5928 86.4134 19.9701 86.4134 30.7248V55.6886C86.4134 66.4433 86.4134 71.8207 84.3204 75.9284C82.4793 79.5417 79.5417 82.4793 75.9284 84.3204C71.8207 86.4134 66.4433 86.4134 55.6886 86.4134H30.7248C19.9701 86.4134 14.5928 86.4134 10.485 84.3204C6.87174 82.4793 3.93405 79.5417 2.093 75.9284C0 71.8207 0 66.4433 0 55.6886V30.7248Z" fill="url(#paint0_linear_1739_47720)"/>
<defs>
<linearGradient id="paint0_linear_1739_47720" x1="83.3272" y1="3.08619" x2="-1.47818e-07" y2="81.7841" gradientUnits="userSpaceOnUse">
<stop stop-color="#5D019E"/>
<stop offset="1" stop-color="#DD02BE"/>
</linearGradient>
</defs>
</svg>
