<svg preserveAspectRatio="none" width="100%" height="100%" overflow="visible" style="display: block;" viewBox="0 0 76 76" fill="none" xmlns="http://www.w3.org/2000/svg">
<g id="Group-6">
<path id="Stroke-4" fill-rule="evenodd" clip-rule="evenodd" d="M74.1212 38.0609C74.1212 57.9764 57.9774 74.1212 38.0606 74.1212C18.145 74.1212 2 57.9764 2 38.0609C2 18.1448 18.145 1.99999 38.0606 1.99999C57.9774 1.99999 74.1212 18.1448 74.1212 38.0609Z" fill="var(--fill-0, #F3F3F3)" stroke="var(--stroke-0, #0A0B11)" stroke-width="2.41114"/>
<path id="Fill-1" fill-rule="evenodd" clip-rule="evenodd" d="M40.2143 33.8674V59.7882H35.1225V32.0618L40.2143 33.8674Z" fill="var(--fill-0, #0A0B11)"/>
<path id="Fill-2" fill-rule="evenodd" clip-rule="evenodd" d="M20.6796 31.5831C20.4774 24.8182 24.0476 21.3684 28.694 21.3684C31.5234 21.3684 33.6787 22.2477 38.2582 24.4125C41.6263 26.0358 44.118 27.2539 46.6103 27.2539C49.0352 27.2539 50.1805 25.2919 50.2473 21.5712H54.2214C54.5579 29.0806 50.7186 31.7865 46.5435 31.7865C43.8489 31.7865 41.424 30.9752 36.777 28.8103C33.6112 27.2539 31.1195 25.8335 28.694 25.8335C26.2697 25.8335 24.7879 27.5248 24.7205 31.5831H20.6796Z" fill="var(--fill-0, #0A0B11)"/>
</g>
</svg>
