<svg preserveAspectRatio="none" width="100%" height="100%" overflow="visible" style="display: block;" viewBox="0 0 356 63" fill="none" xmlns="http://www.w3.org/2000/svg">
<path id="Union" d="M253.5 0C266.59 8.7254e-07 277.812 7.98445 282.568 19.3483C283.678 22.0024 286.123 24 289 24C291.877 24 294.322 22.0024 295.432 19.3483C300.188 7.98444 311.41 0 324.5 0C341.897 0 356 14.103 356 31.5C356 48.897 341.897 63 324.5 63C311.41 63 300.188 55.0156 295.432 43.6517C294.322 40.9976 291.877 39 289 39C286.123 39 283.678 40.9976 282.568 43.6517C277.812 55.0156 266.59 63 253.5 63H31.5C14.103 63 0 48.897 0 31.5C0 14.103 14.103 0 31.5 0H253.5Z" fill="var(--fill-0, #35B6D3)"/>
</svg>
