<svg preserveAspectRatio="none" width="100%" height="100%" overflow="visible" style="display: block;" viewBox="0 0 56 56" fill="none" xmlns="http://www.w3.org/2000/svg">
<g id="youtube">
<path id="bg" d="M3.89342 17.2396C4.11631 13.8081 6.87524 11.1188 10.3098 10.9486C15.2833 10.7022 22.3919 10.405 27.7479 10.405C33.104 10.405 40.2126 10.7022 45.1861 10.9486C48.6207 11.1188 51.3796 13.8081 51.6025 17.2396C51.816 20.5273 52.0265 24.5727 52.0265 27.7468C52.0265 30.921 51.816 34.9664 51.6025 38.2541C51.3796 41.6856 48.6207 44.3749 45.1861 44.5451C40.2126 44.7915 33.104 45.0887 27.7479 45.0887C22.3919 45.0887 15.2833 44.7915 10.3098 44.5451C6.87524 44.3749 4.11631 41.6856 3.89342 38.2541C3.67987 34.9664 3.4694 30.921 3.4694 27.7468C3.4694 24.5727 3.67987 20.5273 3.89342 17.2396Z" fill="var(--fill-0, #FC0D1B)"/>
<path id="play" d="M22.5428 20.8111V34.6845L36.4162 27.7478L22.5428 20.8111Z" fill="var(--fill-0, #FDFEFF)"/>
</g>
</svg>
