<svg preserveAspectRatio="none" width="100%" height="100%" overflow="visible" style="display: block;" viewBox="0 0 1980 339" fill="none" xmlns="http://www.w3.org/2000/svg">
<g id="background" clip-path="url(#clip0_2062_45350)">
<g id="Vector">
<path d="M990 0.5C995.17 0.5 1000.14 1.34369 1004.79 2.90039C1018.57 7.52159 1031.68 16.6156 1045.1 24.625C1058.47 32.6096 1072.14 39.5 1086.9 39.5H1920C1952.86 39.5 1979.5 66.139 1979.5 99V279C1979.5 311.861 1952.86 338.5 1920 338.5H60C27.1391 338.5 0.5 311.861 0.5 279V99C0.5 66.139 27.139 39.5 60 39.5H893.095C907.856 39.5 921.523 32.6096 934.899 24.625C948.318 16.6156 961.427 7.52161 975.214 2.90039C979.858 1.3437 984.83 0.5 990 0.5Z" fill="var(--fill-0, #FDFEFF)"/>
<path d="M990 0.5C995.17 0.5 1000.14 1.34369 1004.79 2.90039C1018.57 7.52159 1031.68 16.6156 1045.1 24.625C1058.47 32.6096 1072.14 39.5 1086.9 39.5H1920C1952.86 39.5 1979.5 66.139 1979.5 99V279C1979.5 311.861 1952.86 338.5 1920 338.5H60C27.1391 338.5 0.5 311.861 0.5 279V99C0.5 66.139 27.139 39.5 60 39.5H893.095C907.856 39.5 921.523 32.6096 934.899 24.625C948.318 16.6156 961.427 7.52161 975.214 2.90039C979.858 1.3437 984.83 0.5 990 0.5Z" stroke="var(--stroke-0, black)"/>
<path d="M990 0.5C995.17 0.5 1000.14 1.34369 1004.79 2.90039C1018.57 7.52159 1031.68 16.6156 1045.1 24.625C1058.47 32.6096 1072.14 39.5 1086.9 39.5H1920C1952.86 39.5 1979.5 66.139 1979.5 99V279C1979.5 311.861 1952.86 338.5 1920 338.5H60C27.1391 338.5 0.5 311.861 0.5 279V99C0.5 66.139 27.139 39.5 60 39.5H893.095C907.856 39.5 921.523 32.6096 934.899 24.625C948.318 16.6156 961.427 7.52161 975.214 2.90039C979.858 1.3437 984.83 0.5 990 0.5Z" stroke="var(--stroke-1, black)" stroke-opacity="0.2"/>
</g>
</g>
<defs>
<clipPath id="clip0_2062_45350">
<rect width="1980" height="339" fill="white"/>
</clipPath>
</defs>
</svg>
