<svg preserveAspectRatio="none" width="100%" height="100%" overflow="visible" style="display: block;" viewBox="0 0 156 156" fill="none" xmlns="http://www.w3.org/2000/svg">
<g id="Bg">
<path id="Discount" d="M135.655 64.6353L131.11 60.0917C129.342 58.3247 128.332 55.9267 128.332 53.4087V46.9025C128.332 36.4269 119.81 27.9139 109.331 27.9139H102.828C100.303 27.9139 97.9042 26.8979 96.1366 25.1309L91.5282 20.5305C84.0789 13.1471 72.0213 13.1471 64.6352 20.5873L60.0899 25.1309C58.3223 26.8979 55.9234 27.9139 53.3983 27.9139H46.896C36.4166 27.9139 27.8942 36.4269 27.8942 46.9025V53.3393C27.8942 55.9267 26.8841 58.3247 25.1165 60.0917L20.5081 64.7047C13.122 72.1449 13.1851 84.2045 20.5712 91.5816L25.1165 96.0621C26.8841 97.8922 27.8942 100.29 27.8942 102.821V109.314C27.8942 119.79 36.4166 128.316 46.896 128.316H53.3983C55.9234 128.316 58.3223 129.319 60.0899 131.086L64.6984 135.699C68.423 139.359 73.2839 141.183 78.1448 141.183C83.0057 141.183 87.8667 139.359 91.5913 135.63L96.1366 131.086C97.9042 129.319 100.303 128.316 102.828 128.316H109.331C119.81 128.316 128.332 119.79 128.332 109.314V102.821C128.332 100.29 129.342 97.8922 131.11 96.1252L135.592 91.6447C135.655 91.5816 135.718 91.5248 135.782 91.4554C139.317 87.8646 141.274 83.0623 141.211 78.0138C141.211 72.9653 139.254 68.1692 135.655 64.6353V64.6353Z" fill="url(#paint0_linear_1739_47611)"/>
<g id="Discount_2" opacity="0.5" filter="url(#filter0_f_1739_47611)">
<path d="M116.209 69.1824L113.2 66.1741C112.029 65.0042 111.361 63.4165 111.361 61.7494V57.4417C111.361 50.506 105.718 44.8696 98.7798 44.8696H94.4747C92.8028 44.8696 91.2145 44.1969 90.0442 43.0271L86.993 39.9812C82.061 35.0927 74.0778 35.0927 69.1876 40.0188L66.1782 43.0271C65.0079 44.1969 63.4196 44.8696 61.7478 44.8696H57.4427C50.5044 44.8696 44.8618 50.506 44.8618 57.4417V61.7035C44.8618 63.4165 44.1931 65.0042 43.0228 66.1741L39.9716 69.2284C35.0814 74.1544 35.1232 82.1389 40.0134 87.0232L43.0228 89.9897C44.1931 91.2014 44.8618 92.7891 44.8618 94.4645V98.7638C44.8618 105.7 50.5044 111.344 57.4427 111.344H61.7478C63.4196 111.344 65.0079 112.009 66.1782 113.179L69.2294 116.233C71.6954 118.656 74.9138 119.864 78.1321 119.864C81.3505 119.864 84.5688 118.656 87.0348 116.187L90.0442 113.179C91.2145 112.009 92.8028 111.344 94.4747 111.344H98.7798C105.718 111.344 111.361 105.7 111.361 98.7638V94.4645C111.361 92.7891 112.029 91.2014 113.2 90.0315L116.167 87.065C116.209 87.0232 116.251 86.9856 116.293 86.9396C118.633 84.5622 119.929 81.3827 119.887 78.0401C119.887 74.6976 118.591 71.5222 116.209 69.1824V69.1824Z" fill="var(--fill-0, #E46800)"/>
</g>
</g>
<defs>
<filter id="filter0_f_1739_47611" x="0.779297" y="0.774061" width="154.654" height="154.635" filterUnits="userSpaceOnUse" color-interpolation-filters="sRGB">
<feFlood flood-opacity="0" result="BackgroundImageFix"/>
<feBlend mode="normal" in="SourceGraphic" in2="BackgroundImageFix" result="shape"/>
<feGaussianBlur stdDeviation="17.7727" result="effect1_foregroundBlur_1739_47611"/>
</filter>
<linearGradient id="paint0_linear_1739_47611" x1="78.1061" y1="15" x2="78.1061" y2="141.183" gradientUnits="userSpaceOnUse">
<stop stop-color="#FFFB7F"/>
<stop offset="1" stop-color="#FFA20D"/>
</linearGradient>
</defs>
</svg>
