<svg preserveAspectRatio="none" width="100%" height="100%" overflow="visible" style="display: block;" viewBox="0 0 72 72" fill="none" xmlns="http://www.w3.org/2000/svg">
<g id="Group">
<g id="Group_2">
<path id="XMLID_11_" d="M35.882 71.7637C55.699 71.7637 71.7639 55.6989 71.7639 35.8818C71.7639 16.0648 55.699 -0.000108192 35.882 -0.000108192C16.065 -0.000108192 7.1854e-05 16.0648 7.1854e-05 35.8818C7.1854e-05 55.6989 16.065 71.7637 35.882 71.7637Z" fill="var(--fill-0, #4D76A1)"/>
</g>
<path id="Vector" fill-rule="evenodd" clip-rule="evenodd" d="M34.5286 51.6199H37.3449C37.3449 51.6199 38.1956 51.5265 38.6299 51.0583C39.0297 50.6284 39.0169 49.8212 39.0169 49.8212C39.0169 49.8212 38.9619 46.0423 40.7157 45.4858C42.4446 44.9377 44.6648 49.1381 47.018 50.7532C48.7974 51.9755 50.1496 51.7075 50.1496 51.7075L56.4416 51.6199C56.4416 51.6199 59.7332 51.4171 58.1725 48.8292C58.0446 48.6174 57.2636 46.9147 53.4942 43.416C49.549 39.7541 50.0773 40.3464 54.8298 34.0121C57.7241 30.1545 58.8812 27.7994 58.5198 26.7907C58.175 25.83 56.0464 26.0839 56.0464 26.0839L48.9618 26.1281C48.9618 26.1281 48.4367 26.0564 48.0471 26.2893C47.6666 26.5176 47.4216 27.0498 47.4216 27.0498C47.4216 27.0498 46.3003 30.0349 44.8049 32.5736C41.6502 37.9305 40.3889 38.2132 39.8733 37.8806C38.674 37.1054 38.9734 34.7663 38.9734 33.1045C38.9734 27.9133 39.7608 25.7488 37.4402 25.1885C36.6701 25.0023 36.1034 24.8795 34.1339 24.8597C31.6061 24.8335 29.4666 24.8674 28.2551 25.4609C27.4492 25.8556 26.8274 26.7351 27.2061 26.7856C27.6743 26.8483 28.7348 27.0715 29.2971 27.8372C30.023 28.8248 29.9975 31.043 29.9975 31.043C29.9975 31.043 30.4145 37.154 29.0233 37.9132C28.0683 38.4339 26.7584 37.3708 23.9459 32.5109C22.5048 30.0215 21.4168 27.2698 21.4168 27.2698C21.4168 27.2698 21.207 26.7556 20.8328 26.4805C20.3787 26.1473 19.7442 26.0411 19.7442 26.0411L13.0121 26.0852C13.0121 26.0852 12.0015 26.1134 11.6305 26.5528C11.3005 26.9436 11.6043 27.7521 11.6043 27.7521C11.6043 27.7521 16.8748 40.0829 22.8426 46.2969C28.3146 51.994 34.5286 51.6199 34.5286 51.6199Z" fill="var(--fill-0, #FDFEFF)"/>
</g>
</svg>
