<svg preserveAspectRatio="none" width="100%" height="100%" overflow="visible" style="display: block;" viewBox="0 0 62 62" fill="none" xmlns="http://www.w3.org/2000/svg">
<g id="wordpress logo">
<path id="Vector" d="M6.87907 30.9094C6.87907 40.4193 12.4043 48.6397 20.4217 52.5342L8.95892 21.13C7.62487 24.1184 6.87907 27.4246 6.87907 30.9094ZM47.1296 29.6971C47.1296 26.7261 46.0617 24.6699 45.1487 23.0697C43.9294 21.0906 42.7879 19.416 42.7879 17.4342C42.7879 15.2274 44.4616 13.1704 46.8241 13.1704C46.9292 13.1704 47.029 13.1835 47.134 13.1887C42.8588 9.2724 37.1646 6.88268 30.9067 6.88268C22.5112 6.88268 15.1284 11.1877 10.8287 17.7117C11.3942 17.7292 11.9246 17.7406 12.3781 17.7406C14.8894 17.7406 18.7804 17.4333 18.7804 17.4333C20.075 17.3581 20.23 19.262 18.9345 19.416C18.9345 19.416 17.6328 19.5675 16.1832 19.6445L24.935 45.6714L30.1933 29.9001L26.4511 19.6436C25.1565 19.5666 23.931 19.4151 23.931 19.4151C22.6346 19.3372 22.786 17.3572 24.0833 17.4325C24.0833 17.4325 28.0504 17.7397 30.4112 17.7397C32.9244 17.7397 36.8153 17.4325 36.8153 17.4325C38.1109 17.3572 38.2641 19.2611 36.9694 19.4151C36.9694 19.4151 35.666 19.5666 34.2199 19.6436L42.9034 45.4736L45.301 37.4658C46.5169 34.3417 47.1296 31.755 47.1296 29.6971ZM31.3295 33.0085L24.1192 53.9602C26.2726 54.5948 28.5494 54.9388 30.9067 54.9388C33.7052 54.9388 36.389 54.4547 38.8864 53.5776C38.8225 53.4752 38.763 53.3667 38.7157 53.245L31.3295 33.0085ZM51.994 19.381C52.0955 20.1469 52.1559 20.9671 52.1559 21.8521C52.1559 24.2909 51.6999 27.0316 50.3273 30.4586L42.9883 51.679C50.1339 47.5132 54.9369 39.7733 54.9369 30.9086C54.9369 26.7305 53.8681 22.8045 51.994 19.381ZM2.89621 30.9094C2.89621 46.3559 15.4628 58.9208 30.9067 58.9208C46.3515 58.9208 58.9189 46.3559 58.9189 30.9094C58.9189 15.4638 46.3515 2.89806 30.9067 2.89806C15.4628 2.89806 2.89621 15.4638 2.89621 30.9094ZM4.18123 30.9094C4.18123 16.1737 16.171 4.18571 30.9067 4.18571C45.645 4.18571 57.6348 16.1737 57.6348 30.9094C57.6348 45.646 45.645 57.6366 30.9067 57.6366C16.171 57.6366 4.18123 45.646 4.18123 30.9094Z" fill="var(--fill-0, #FDFEFF)"/>
</g>
</svg>
