<svg preserveAspectRatio="none" width="100%" height="100%" overflow="visible" style="display: block;" viewBox="0 0 126 131" fill="none" xmlns="http://www.w3.org/2000/svg">
<g id="tiktok" style="mix-blend-mode:plus-lighter" opacity="0.5" clip-path="url(#clip0_1739_47374)" filter="url(#filter0_f_1739_47374)">
<path id="vector" d="M42.9836 75.8103C43.3902 72.4445 44.7706 70.56 47.3719 68.6282C51.094 66.0119 55.7434 67.4919 55.7434 67.4919V58.7122C56.8737 58.6833 58.0044 58.7503 59.1224 58.9124V70.211C59.1224 70.211 54.4744 68.731 50.7524 71.3487C48.1525 73.2792 46.7692 75.165 46.3641 78.5308C46.3514 80.3584 46.6944 82.7475 48.2738 84.8132C47.8833 84.613 47.4853 84.3848 47.0797 84.1287C43.6005 81.7924 42.9667 78.2873 42.9836 75.8103ZM78.3199 42.4785C75.7594 39.6727 74.7912 36.84 74.4411 34.85H77.6621C77.6621 34.85 77.0199 40.0678 81.7003 45.199L81.7653 45.268C80.5038 44.4745 79.347 43.5379 78.3199 42.4785ZM93.8362 50.433V61.5043C93.8362 61.5043 89.726 61.3434 86.6842 60.5696C82.4371 59.4873 79.7073 57.8274 79.7073 57.8274C79.7073 57.8274 77.8216 56.6437 77.6692 56.5612V79.4236C77.6692 80.6966 77.3205 83.8757 76.2577 86.5272C74.8702 89.9958 72.729 92.2726 72.3352 92.738C72.3352 92.738 69.731 95.8156 65.1367 97.8881C60.9954 99.7577 57.3595 99.7103 56.2727 99.7577C56.2727 99.7577 49.9874 100.007 44.3316 96.331C43.1086 95.5209 41.9669 94.6033 40.9215 93.5902L40.9497 93.6105C46.6069 97.2861 52.8908 97.0372 52.8908 97.0372C53.979 96.9898 57.615 97.0372 61.7548 95.1676C66.3449 93.0951 68.9533 90.0175 68.9533 90.0175C69.3429 89.5521 71.494 87.2753 72.8758 83.8054C73.9358 81.1552 74.2873 77.9748 74.2873 76.7018V53.842C74.4397 53.9259 76.324 55.1096 76.324 55.1096C76.324 55.1096 79.0552 56.7709 83.3024 57.8518C86.3455 58.6256 90.4543 58.7866 90.4543 58.7866V50.111C91.8601 50.4262 93.0584 50.5114 93.8362 50.433Z" fill="var(--fill-0, #EE1D52)"/>
<path id="vector_2" d="M90.4565 50.111V58.7839C90.4565 58.7839 86.3477 58.6229 83.3046 57.8491C79.0575 56.7668 76.3263 55.1069 76.3263 55.1069C76.3263 55.1069 74.4419 53.9232 74.2895 53.8393V76.7045C74.2895 77.9775 73.9409 81.1579 72.878 83.8081C71.4906 87.278 69.3493 89.5548 68.9555 90.0202C68.9555 90.0202 66.35 93.0978 61.757 95.1703C57.6172 97.0399 53.9812 96.9925 52.893 97.0399C52.893 97.0399 46.6091 97.2888 40.9519 93.6132L40.9237 93.5929C40.3264 93.0146 39.7642 92.4039 39.2398 91.7639C37.4345 89.5629 36.3279 86.9601 36.0499 86.2174C36.0494 86.2143 36.0494 86.2111 36.0499 86.208C35.6024 84.9174 34.6624 81.8181 34.7909 78.8162C35.0181 73.52 36.8812 70.2692 37.3738 69.4548C38.6785 67.234 40.3753 65.247 42.3888 63.5823C44.1656 62.1457 46.1796 61.0028 48.348 60.2002C50.6923 59.258 53.2025 58.7529 55.7442 58.7122V67.4919C55.7442 67.4919 51.0948 66.0173 47.3741 68.6282C44.7728 70.56 43.3924 72.4445 42.9859 75.8103C42.9689 78.2873 43.6027 81.7924 47.0791 84.1301C47.4847 84.3871 47.8827 84.6153 48.2732 84.8146C48.8806 85.604 49.6198 86.292 50.461 86.8505C53.857 89.0002 56.7026 89.1503 60.3413 87.7542C62.7677 86.8208 64.5941 84.7172 65.441 82.3863C65.9731 80.9307 65.9661 79.4656 65.9661 77.9504V34.85H74.4349C74.7849 36.84 75.7532 39.6727 78.3136 42.4785C79.3407 43.5379 80.4976 44.4745 81.759 45.268C82.1316 45.6535 84.0371 47.5596 86.4832 48.7298C87.748 49.3347 89.0812 49.7981 90.4565 50.111V50.111Z" fill="var(--fill-0, #0A0B11)"/>
<path id="vector_3" d="M32.6781 83.5207V83.5274L32.8882 84.097C32.8641 84.0307 32.786 83.8291 32.6781 83.5207Z" fill="var(--fill-0, #35B6D3)"/>
<path id="vector_4" d="M48.3459 60.1998C46.1774 61.0024 44.1634 62.1453 42.3866 63.5818C40.3725 65.2503 38.6761 67.2415 37.3731 69.4666C36.8805 70.2782 35.0173 73.5317 34.7901 78.828C34.6617 81.8299 35.6017 84.9291 36.0491 86.2197C36.0486 86.2229 36.0486 86.2261 36.0491 86.2292C36.3314 86.9651 37.4338 89.5679 39.2391 91.7757C39.7635 92.4157 40.3257 93.0264 40.9229 93.6047C39.0093 92.3362 37.3026 90.8025 35.8586 89.0539C34.0688 86.8718 32.9651 84.296 32.6771 83.5358C32.6768 83.5303 32.6768 83.5249 32.6771 83.5195V83.5101C32.2283 82.2208 31.2854 79.1202 31.4167 76.1143C31.6439 70.818 33.5071 67.5672 33.9997 66.7528C35.3023 64.5275 36.9987 62.5363 39.0132 60.8681C40.7897 59.4311 42.8037 58.2881 44.9725 57.4861C46.3252 56.9482 47.7345 56.5513 49.1758 56.3024C51.348 55.939 53.5666 55.9075 55.7491 56.209V58.7117C53.205 58.7516 50.6923 59.2567 48.3459 60.1998Z" fill="var(--fill-0, #35B6D3)"/>
<path id="vector_5" d="M74.4387 34.8496H65.9699V77.9514C65.9699 79.4665 65.9699 80.9275 65.4448 82.3872C64.5895 84.7167 62.7701 86.8204 60.3452 87.7538C56.705 89.1553 53.8595 88.9997 50.4649 86.8501C49.6222 86.294 48.8811 85.6084 48.2715 84.8209C51.1636 86.2995 53.7522 86.2738 56.9591 85.0401C59.3826 84.1066 61.2048 82.003 62.0573 79.6721C62.5908 78.2165 62.5838 76.7514 62.5838 75.2376V32.1277H74.2778C74.2778 32.1277 74.1466 33.1991 74.4387 34.8496ZM90.4533 47.712V50.1106C89.0804 49.7972 87.7496 49.3337 86.4871 48.7294C84.041 47.5592 82.1355 45.6531 81.7629 45.2675C82.1953 45.5396 82.6439 45.7872 83.1066 46.0089C86.0806 47.432 89.0094 47.8568 90.4533 47.712Z" fill="var(--fill-0, #35B6D3)"/>
</g>
<defs>
<filter id="filter0_f_1739_47374" x="-10.2153" y="-15.2153" width="145.671" height="145.671" filterUnits="userSpaceOnUse" color-interpolation-filters="sRGB">
<feFlood flood-opacity="0" result="BackgroundImageFix"/>
<feBlend mode="normal" in="SourceGraphic" in2="BackgroundImageFix" result="shape"/>
<feGaussianBlur stdDeviation="15.6076" result="effect1_foregroundBlur_1739_47374"/>
</filter>
<clipPath id="clip0_1739_47374">
<rect width="83.2407" height="83.2407" fill="white" transform="translate(21 16)"/>
</clipPath>
</defs>
</svg>
