<svg preserveAspectRatio="none" width="100%" height="100%" overflow="visible" style="display: block;" viewBox="0 0 70 70" fill="none" xmlns="http://www.w3.org/2000/svg">
<g id="instagram">
<rect id="bg" x="4.33501" y="4.33582" width="60.6964" height="60.6964" rx="13.0064" fill="url(#paint0_radial_1739_46686)"/>
<rect id="bg_2" x="4.33501" y="4.33582" width="60.6964" height="60.6964" rx="13.0064" fill="url(#paint1_radial_1739_46686)"/>
<rect id="bg_3" x="4.33501" y="4.33582" width="60.6964" height="60.6964" rx="13.0064" fill="url(#paint2_radial_1739_46686)"/>
<g id="instagram_2">
<path d="M49.8568 22.7609C49.8568 24.5567 48.401 26.0125 46.6052 26.0125C44.8094 26.0125 43.3536 24.5567 43.3536 22.7609C43.3536 20.9651 44.8094 19.5093 46.6052 19.5093C48.401 19.5093 49.8568 20.9651 49.8568 22.7609Z" fill="var(--fill-0, #FDFEFF)"/>
<path fill-rule="evenodd" clip-rule="evenodd" d="M34.6827 45.5221C40.6687 45.5221 45.5213 40.6694 45.5213 34.6834C45.5213 28.6974 40.6687 23.8448 34.6827 23.8448C28.6967 23.8448 23.844 28.6974 23.844 34.6834C23.844 40.6694 28.6967 45.5221 34.6827 45.5221ZM34.6827 41.1866C38.2743 41.1866 41.1859 38.275 41.1859 34.6834C41.1859 31.0918 38.2743 28.1802 34.6827 28.1802C31.0911 28.1802 28.1795 31.0918 28.1795 34.6834C28.1795 38.275 31.0911 41.1866 34.6827 41.1866Z" fill="var(--fill-0, #FDFEFF)"/>
<path fill-rule="evenodd" clip-rule="evenodd" d="M13.0054 33.8163C13.0054 26.5321 13.0054 22.89 14.423 20.1077C15.67 17.6604 17.6597 15.6707 20.107 14.4238C22.8892 13.0061 26.5313 13.0061 33.8156 13.0061H35.5498C42.834 13.0061 46.4761 13.0061 49.2584 14.4238C51.7057 15.6707 53.6954 17.6604 54.9423 20.1077C56.3599 22.89 56.3599 26.5321 56.3599 33.8163V35.5505C56.3599 42.8348 56.3599 46.4769 54.9423 49.2591C53.6954 51.7064 51.7057 53.6961 49.2584 54.9431C46.4761 56.3607 42.834 56.3607 35.5498 56.3607H33.8156C26.5313 56.3607 22.8892 56.3607 20.107 54.9431C17.6597 53.6961 15.67 51.7064 14.423 49.2591C13.0054 46.4769 13.0054 42.8348 13.0054 35.5505V33.8163ZM33.8156 17.3416H35.5498C39.2634 17.3416 41.7879 17.345 43.7393 17.5044C45.64 17.6597 46.612 17.9412 47.2901 18.2867C48.9216 19.118 50.2481 20.4445 51.0794 22.076C51.4249 22.7541 51.7064 23.7261 51.8617 25.6268C52.0211 27.5782 52.0245 30.1027 52.0245 33.8163V35.5505C52.0245 39.2642 52.0211 41.7887 51.8617 43.74C51.7064 45.6407 51.4249 46.6128 51.0794 47.2908C50.2481 48.9224 48.9216 50.2489 47.2901 51.0802C46.612 51.4257 45.64 51.7071 43.7393 51.8624C41.7879 52.0219 39.2634 52.0252 35.5498 52.0252H33.8156C30.1019 52.0252 27.5774 52.0219 25.6261 51.8624C23.7253 51.7071 22.7533 51.4257 22.0753 51.0802C20.4437 50.2489 19.1172 48.9224 18.2859 47.2908C17.9404 46.6128 17.659 45.6407 17.5037 43.74C17.3442 41.7887 17.3409 39.2642 17.3409 35.5505V33.8163C17.3409 30.1027 17.3442 27.5782 17.5037 25.6268C17.659 23.7261 17.9404 22.7541 18.2859 22.076C19.1172 20.4445 20.4437 19.118 22.0753 18.2867C22.7533 17.9412 23.7253 17.6597 25.6261 17.5044C27.5774 17.345 30.1019 17.3416 33.8156 17.3416Z" fill="var(--fill-0, #FDFEFF)"/>
</g>
</g>
<defs>
<radialGradient id="paint0_radial_1739_46686" cx="0" cy="0" r="1" gradientUnits="userSpaceOnUse" gradientTransform="translate(26.0123 49.8581) rotate(-55.3758) scale(55.3195)">
<stop stop-color="#B13589"/>
<stop offset="0.79309" stop-color="#C62F94"/>
<stop offset="1" stop-color="#8A3AC8"/>
</radialGradient>
<radialGradient id="paint1_radial_1739_46686" cx="0" cy="0" r="1" gradientUnits="userSpaceOnUse" gradientTransform="translate(23.8446 67.1999) rotate(-65.1363) scale(48.9782)">
<stop stop-color="#E0E8B7"/>
<stop offset="0.444662" stop-color="#FB8A2E"/>
<stop offset="0.71474" stop-color="#E2425C"/>
<stop offset="1" stop-color="#E2425C" stop-opacity="0"/>
</radialGradient>
<radialGradient id="paint2_radial_1739_46686" cx="0" cy="0" r="1" gradientUnits="userSpaceOnUse" gradientTransform="translate(1.08342 6.50355) rotate(-8.1301) scale(84.3048 18.0319)">
<stop offset="0.156701" stop-color="#406ADC"/>
<stop offset="0.467799" stop-color="#6A45BE"/>
<stop offset="1" stop-color="#6A45BE" stop-opacity="0"/>
</radialGradient>
</defs>
</svg>
