<svg width="21" height="46" viewBox="0 0 21 46" fill="none" xmlns="http://www.w3.org/2000/svg">
<path d="M17.2243 0.120605C18.0506 0.928217 18.6604 1.77743 19.108 2.73246C20.9338 6.62491 20.1763 10.8818 17.1328 13.9242C15.2336 15.8225 13.3336 17.7208 11.4353 19.6199C9.5806 21.4748 9.5797 24.1853 11.4308 26.0392C13.4532 28.0641 15.5082 30.0592 17.4889 32.1248C19.3626 34.0792 20.1835 36.4695 20.0621 39.169C19.9579 41.5087 19.0881 43.5372 17.5061 45.2664C17.3212 45.4689 17.2198 45.459 17.0376 45.2763C12.7111 40.9443 8.3583 36.6377 4.05986 32.2786C1.94779 30.1379 0.724583 27.5188 0.384803 24.5235C-0.124413 20.0342 1.24739 16.1842 4.43407 12.989C8.62469 8.78638 12.828 4.59638 17.0231 0.399155C17.0929 0.329517 17.1409 0.238175 17.2243 0.120605Z" fill="#FDFEFF"/>
</svg>
