<svg width="23" height="48" viewBox="0 0 23 48" fill="none" xmlns="http://www.w3.org/2000/svg">
<path d="M18.2243 0.120605C19.0506 0.928217 19.6604 1.77743 20.108 2.73246C21.9338 6.62491 21.1763 10.8818 18.1328 13.9242C16.2336 15.8225 14.3336 17.7208 12.4353 19.6199C10.5806 21.4748 10.5797 24.1853 12.4308 26.0392C14.4532 28.0641 16.5082 30.0592 18.4889 32.1248C20.3626 34.0792 21.1835 36.4695 21.0621 39.169C20.9579 41.5087 20.0881 43.5372 18.5061 45.2664C18.3212 45.4689 18.2198 45.459 18.0376 45.2763C13.7111 40.9443 9.3583 36.6377 5.05986 32.2786C2.94779 30.1379 1.72458 27.5188 1.3848 24.5235C0.875587 20.0342 2.24739 16.1842 5.43407 12.989C9.62469 8.78638 13.828 4.59638 18.0231 0.399155C18.0929 0.329517 18.1409 0.238175 18.2243 0.120605Z" fill="#FDFEFF"/>
<path d="M18.1593 25.708C16.5338 25.6845 15.2988 24.4012 15.3206 22.757C15.3414 21.1888 16.6996 19.8901 18.3107 19.9571C19.8809 20.0222 21.1059 21.2892 21.0751 22.909C21.0452 24.5016 19.7649 25.7315 18.1602 25.708H18.1593Z" fill="#FDFEFF"/>
</svg>
