<svg preserveAspectRatio="none" width="100%" height="100%" overflow="visible" style="display: block;" viewBox="0 0 50 111" fill="none" xmlns="http://www.w3.org/2000/svg">
<g id="Group">
<g id="Vector">
</g>
<path id="Vector_2" d="M40.78 0.277852C42.6747 2.12961 44.0729 4.07676 45.0992 6.26652C49.2854 15.1915 47.5486 24.9521 40.5702 31.9278C36.2157 36.2804 31.8591 40.6329 27.5067 44.9876C23.2539 49.2406 23.2519 55.4553 27.4963 59.7062C32.1333 64.3491 36.8452 68.9236 41.3867 73.6598C45.683 78.1409 47.5652 83.6215 47.2868 89.8113C47.0479 95.1758 45.0535 99.827 41.4261 103.792C41.0023 104.256 40.7696 104.233 40.352 103.815C30.4318 93.8819 20.4513 84.0072 10.5955 74.0123C5.7528 69.104 2.94813 63.0987 2.16905 56.2308C1.00148 45.9373 4.14686 37.1098 11.4535 29.7836C21.0621 20.1475 30.6998 10.5403 40.3188 0.916532C40.4788 0.756862 40.5889 0.547425 40.78 0.277852Z" fill="var(--fill-0, #35B6D3)"/>
<path id="Vector_3" d="M40.6248 58.9451C36.8977 58.8912 34.066 55.9487 34.1159 52.1788C34.1637 48.5831 37.2779 45.6054 40.9717 45.7589C44.5721 45.9082 47.3809 48.8133 47.3103 52.5272C47.2417 56.1789 44.3062 58.999 40.6269 58.9451H40.6248Z" fill="var(--fill-0, #35B6D3)"/>
</g>
</svg>
