<svg preserveAspectRatio="none" width="100%" height="100%" overflow="visible" style="display: block;" viewBox="0 0 27 27" fill="none" xmlns="http://www.w3.org/2000/svg">
<g id="Group">
<path id="Vector" d="M12.0665 26.1914C11.6212 26.1562 10.5958 25.9922 10.0743 25.8691C6.00203 24.9082 2.55672 21.9492 0.974688 18.0586C-0.454999 14.5429 -0.308515 10.705 1.3907 7.25974L1.66024 6.70896L0.834063 3.36325C0.377032 1.51755 0.0137507 0.00583009 0.01961 -2.92835e-05C0.0254694 -0.00588866 1.54305 0.357393 3.39461 0.802705L6.75789 1.62302L7.34383 1.33005C8.5157 0.75583 9.84578 0.339814 11.2169 0.117158C12.0958 -0.0234668 14.1114 -0.0234668 15.0255 0.117158C17.9493 0.574189 20.5567 1.91599 22.5665 4.01364C24.1602 5.68356 25.2384 7.59372 25.8009 9.76755C27.0079 14.4258 25.6778 19.1836 22.2266 22.5468C19.543 25.1543 15.8575 26.4785 12.0665 26.1914ZM8.87898 19.1777C9.30086 19.0898 9.67 18.8965 9.8282 18.6738C9.95125 18.5097 10.7247 16.8398 10.8712 16.4238C11.047 15.9375 10.9239 15.5508 10.42 14.959C9.84578 14.2851 9.83992 14.209 10.3321 13.4179C11.2227 11.9765 12.547 10.7929 13.877 10.248C14.7032 9.90231 14.8673 9.94919 15.3009 10.6289C15.6934 11.25 16.0274 11.4433 16.6427 11.3965C16.9239 11.3789 17.1524 11.291 17.9376 10.9043C18.9688 10.4004 19.2149 10.2246 19.4024 9.86716C19.6895 9.2988 19.3966 8.36716 18.7052 7.66989C18.0606 7.0195 17.4161 6.82614 16.2384 6.94333C13.9298 7.17185 11.7735 8.34372 9.57625 10.5527C7.9532 12.1875 6.98055 13.5351 6.58211 14.7011C6.13094 16.0371 6.34773 17.5019 7.14461 18.5097C7.68953 19.2011 8.08211 19.3476 8.87898 19.1777Z" fill="var(--fill-0, #FDFEFF)"/>
</g>
</svg>
