<svg preserveAspectRatio="none" width="100%" height="100%" overflow="visible" style="display: block;" viewBox="0 0 54 54" fill="none" xmlns="http://www.w3.org/2000/svg">
<g id="tiktok">
<path id="vector" d="M14.225 33.3145C14.488 31.1367 15.3812 29.9173 17.0644 28.6673C19.4728 26.9744 22.4812 27.932 22.4812 27.932V22.251C23.2126 22.2323 23.9443 22.2757 24.6677 22.3806V29.6915C24.6677 29.6915 21.6602 28.7338 19.2518 30.4276C17.5695 31.6767 16.6745 32.897 16.4123 35.0748C16.4041 36.2574 16.626 37.8033 17.648 39.1399C17.3954 39.0104 17.1378 38.8628 16.8754 38.697C14.6241 37.1853 14.214 34.9173 14.225 33.3145ZM37.0896 11.7469C35.4328 9.9314 34.8063 8.09842 34.5798 6.81079H36.664C36.664 6.81079 36.2484 10.187 39.2769 13.5072L39.3189 13.5518C38.5027 13.0384 37.7542 12.4324 37.0896 11.7469ZM47.1295 16.8939V24.0577C47.1295 24.0577 44.47 23.9536 42.5018 23.4529C39.7537 22.7526 37.9874 21.6785 37.9874 21.6785C37.9874 21.6785 36.7672 20.9126 36.6685 20.8592V35.6526C36.6685 36.4763 36.443 38.5333 35.7552 40.249C34.8575 42.4934 33.472 43.9666 33.2172 44.2677C33.2172 44.2677 31.5321 46.2591 28.5593 47.6002C25.8797 48.8099 23.527 48.7793 22.8237 48.8099C22.8237 48.8099 18.7568 48.971 15.0972 46.5926C14.3058 46.0684 13.5671 45.4747 12.8906 44.8192L12.9089 44.8323C16.5694 47.2106 20.6355 47.0496 20.6355 47.0496C21.3396 47.0189 23.6923 47.0496 26.371 45.8398C29.3411 44.4988 31.0289 42.5074 31.0289 42.5074C31.2809 42.2063 32.6728 40.7331 33.567 38.4878C34.2528 36.773 34.4803 34.7151 34.4803 33.8914V19.0998C34.5789 19.154 35.7982 19.92 35.7982 19.92C35.7982 19.92 37.5654 20.9949 40.3135 21.6943C42.2826 22.195 44.9413 22.2992 44.9413 22.2992V16.6856C45.8509 16.8895 46.6263 16.9447 47.1295 16.8939Z" fill="var(--fill-0, #EE1D52)"/>
<path id="vector_2" d="M44.9425 16.6853V22.2971C44.9425 22.2971 42.2839 22.193 40.3148 21.6923C37.5666 20.992 35.7994 19.918 35.7994 19.918C35.7994 19.918 34.5801 19.152 34.4815 19.0978V33.8929C34.4815 34.7166 34.2559 36.7745 33.5682 38.4893C32.6704 40.7346 31.2849 42.2078 31.0301 42.5089C31.0301 42.5089 29.3441 44.5003 26.3722 45.8413C23.6935 47.0511 21.3408 47.0204 20.6367 47.0511C20.6367 47.0511 16.5707 47.2121 12.9101 44.8338L12.8919 44.8207C12.5054 44.4465 12.1416 44.0513 11.8023 43.6372C10.6342 42.213 9.91813 40.5289 9.73821 40.0483C9.7379 40.0463 9.7379 40.0442 9.73821 40.0422C9.44869 39.2071 8.84043 37.2017 8.92354 35.2593C9.07058 31.8323 10.2761 29.7288 10.5949 29.2019C11.4391 27.7649 12.537 26.4792 13.8399 25.402C14.9896 24.4725 16.2927 23.7329 17.6958 23.2136C19.2127 22.6039 20.837 22.2771 22.4816 22.2508V27.9318C22.4816 27.9318 19.4731 26.9776 17.0657 28.667C15.3824 29.917 14.4892 31.1364 14.2262 33.3143C14.2152 34.917 14.6253 37.185 16.8748 38.6976C17.1372 38.864 17.3948 39.0116 17.6474 39.1406C18.0404 39.6514 18.5187 40.0965 19.0631 40.458C21.2605 41.8489 23.1017 41.946 25.4562 41.0427C27.0262 40.4387 28.208 39.0775 28.756 37.5693C29.1003 36.6274 29.0957 35.6794 29.0957 34.699V6.81053H34.5756C34.8021 8.09816 35.4286 9.93114 37.0853 11.7466C37.7499 12.4321 38.4985 13.0381 39.3147 13.5516C39.5558 13.801 40.7888 15.0344 42.3715 15.7916C43.1899 16.183 44.0526 16.4828 44.9425 16.6853V16.6853Z" fill="var(--fill-0, white)"/>
<path id="vector_3" d="M7.55566 38.3037V38.3081L7.69164 38.6766C7.67602 38.6337 7.62549 38.5033 7.55566 38.3037Z" fill="var(--fill-0, #69C9D0)"/>
<path id="vector_4" d="M17.6956 23.2136C16.2925 23.7329 14.9893 24.4725 13.8396 25.402C12.5364 26.4816 11.4387 27.77 10.5956 29.2098C10.2768 29.735 9.07127 31.8402 8.92423 35.2671C8.84112 37.2095 9.44938 39.215 9.7389 40.05C9.73859 40.0521 9.73859 40.0541 9.7389 40.0562C9.92156 40.5324 10.6349 42.2165 11.803 43.6451C12.1423 44.0592 12.5061 44.4543 12.8925 44.8286C11.6543 44.0077 10.5499 43.0154 9.6156 41.8839C8.45753 40.472 7.74333 38.8053 7.55701 38.3134C7.55679 38.3099 7.55679 38.3063 7.55701 38.3028V38.2967C7.26658 37.4625 6.65649 35.4562 6.74143 33.5112C6.88847 30.0842 8.09404 27.9808 8.41278 27.4538C9.25565 26.0139 10.3534 24.7255 11.6568 23.6461C12.8063 22.7162 14.1095 21.9766 15.5128 21.4577C16.3881 21.1096 17.3 20.8528 18.2326 20.6918C19.6382 20.4566 21.0737 20.4362 22.4859 20.6314V22.2508C20.8398 22.2766 19.2139 22.6034 17.6956 23.2136Z" fill="var(--fill-0, #69C9D0)"/>
<path id="vector_5" d="M34.5791 6.81064H29.0992V34.7C29.0992 35.6804 29.0992 36.6258 28.7595 37.5703C28.206 39.0776 27.0288 40.4388 25.4597 41.0428C23.1043 41.9497 21.2631 41.849 19.0666 40.4581C18.5213 40.0982 18.0418 39.6546 17.6473 39.145C19.5187 40.1018 21.1937 40.0852 23.2687 39.2869C24.8368 38.6829 26.0159 37.3217 26.5675 35.8135C26.9128 34.8716 26.9082 33.9236 26.9082 32.9441V5.04944H34.4749C34.4749 5.04944 34.39 5.74271 34.5791 6.81064ZM44.9414 15.1334V16.6854C44.0531 16.4826 43.192 16.1828 42.375 15.7917C40.7923 15.0345 39.5593 13.8011 39.3182 13.5517C39.598 13.7277 39.8883 13.8879 40.1877 14.0314C42.112 14.9522 44.0071 15.2271 44.9414 15.1334Z" fill="var(--fill-0, #69C9D0)"/>
</g>
</svg>
