<svg preserveAspectRatio="none" width="100%" height="100%" overflow="visible" style="display: block;" viewBox="0 0 47 47" fill="none" xmlns="http://www.w3.org/2000/svg">
<g id="xbox">
<circle id="vector" opacity="0.852" cx="23.3333" cy="23.3333" r="23.3333" fill="url(#paint0_radial_2089_45685)"/>
<path id="vector_2" d="M7.91828 40.8887C7.88645 40.8654 7.85383 40.8359 7.82119 40.8C7.2172 40.2506 6.23341 39.3839 5.20536 38.0739C4.3175 36.148 4.82077 32.9131 7.00575 28.3457C10.0886 21.9014 15.0212 15.3583 17.0436 13.0374C16.4681 12.3954 14.6858 10.6374 12.1603 8.74114C9.63482 6.84488 7.79496 6.65064 7.15372 6.76587C7.74563 6.12391 9.12676 4.91405 10.2859 4.09925C13.8768 2.32151 20.5128 5.32557 23.3573 7.03747V18.815C16.1064 24.3952 9.39805 33.0123 8.04159 36.3703C7.00629 38.9332 7.41557 40.3546 7.82119 40.8C7.85474 40.8305 7.88713 40.8601 7.91828 40.8887Z" fill="url(#paint1_linear_2089_45685)"/>
<path id="vector_3" d="M7.91829 40.8884C7.88645 40.8651 7.85383 40.8356 7.82119 40.7997C7.21719 40.2502 6.23341 39.3835 5.20537 38.0736C4.3175 36.1477 4.82078 32.9128 7.00576 28.3454C10.5849 20.8637 17.0436 13.0371 17.0436 13.0371C17.0436 13.0371 18.1968 15.9007 20.8141 20.8637C14.0733 26.839 9.39805 33.012 8.04159 36.3699C7.00629 38.9329 7.41557 40.3543 7.82119 40.7997C7.85475 40.8302 7.88713 40.8598 7.91829 40.8884Z" fill="url(#paint2_linear_2089_45685)"/>
<path id="vector_4" d="M38.7959 40.8887C38.8277 40.8654 38.8604 40.8359 38.893 40.8C39.497 40.2506 40.4808 39.3839 41.5088 38.0739C42.3967 36.1481 41.8934 32.9132 39.7084 28.3457C36.6256 21.9014 31.693 15.3583 29.6706 13.0374C30.2461 12.3954 32.0284 10.6374 34.5539 8.74116C37.0794 6.8449 38.9192 6.65066 39.5605 6.76589C38.9686 6.12392 37.5874 4.91407 36.4283 4.09927C32.8373 2.32153 26.2014 5.32559 23.3569 7.03749V18.815C30.6078 24.3952 37.3161 33.0123 38.6726 36.3703C39.7079 38.9332 39.2986 40.3546 38.893 40.8C38.8594 40.8306 38.8271 40.8601 38.7959 40.8887Z" fill="url(#paint3_linear_2089_45685)"/>
<path id="vector_5" d="M38.7959 40.8884C38.8277 40.8651 38.8604 40.8356 38.893 40.7997C39.497 40.2503 40.4808 39.3836 41.5088 38.0736C42.3967 36.1478 41.8934 32.9129 39.7084 28.3454C36.1293 20.8637 29.6706 13.0371 29.6706 13.0371C29.6706 13.0371 28.5174 15.9007 25.9001 20.8637C32.6409 26.839 37.3161 33.012 38.6726 36.37C39.7079 38.9329 39.2986 40.3543 38.893 40.7997C38.8594 40.8303 38.8271 40.8598 38.7959 40.8884Z" fill="url(#paint4_linear_2089_45685)"/>
</g>
<defs>
<radialGradient id="paint0_radial_2089_45685" cx="0" cy="0" r="1" gradientUnits="userSpaceOnUse" gradientTransform="translate(23.3333 20.8333) rotate(90.0548) scale(25.8333)">
<stop stop-color="#FAFAFA"/>
<stop offset="0.499976" stop-color="#EFEFEF"/>
<stop offset="0.828794" stop-color="#C0BEC0"/>
<stop offset="1" stop-color="#B9B9B9"/>
</radialGradient>
<linearGradient id="paint1_linear_2089_45685" x1="18.3202" y1="4.54301" x2="18.7153" y2="17.9751" gradientUnits="userSpaceOnUse">
<stop stop-color="#E6E6E6"/>
<stop offset="1" stop-color="#F6F6F6"/>
</linearGradient>
<linearGradient id="paint2_linear_2089_45685" x1="13.5795" y1="17.7778" x2="18.1227" y2="24" gradientUnits="userSpaceOnUse">
<stop stop-color="#CACACA"/>
<stop offset="1" stop-color="#E9E9E9"/>
</linearGradient>
<linearGradient id="paint3_linear_2089_45685" x1="28.394" y1="4.54303" x2="27.9989" y2="17.9751" gradientUnits="userSpaceOnUse">
<stop stop-color="#E6E6E6"/>
<stop offset="1" stop-color="#F6F6F6"/>
</linearGradient>
<linearGradient id="paint4_linear_2089_45685" x1="33.1347" y1="17.7778" x2="28.5915" y2="24" gradientUnits="userSpaceOnUse">
<stop stop-color="#CACACA"/>
<stop offset="1" stop-color="#E9E9E9"/>
</linearGradient>
</defs>
</svg>
