<svg preserveAspectRatio="none" width="100%" height="100%" overflow="visible" style="display: block;" viewBox="0 0 105 105" fill="none" xmlns="http://www.w3.org/2000/svg">
<g id="WB" style="mix-blend-mode:plus-lighter" opacity="0.5" filter="url(#filter0_f_2089_45692)">
<path id="bg" d="M24.163 44.5948C24.163 37.6358 24.163 34.1564 25.5173 31.4984C26.7086 29.1604 28.6094 27.2596 30.9474 26.0683C33.6054 24.714 37.0848 24.714 44.0437 24.714H60.1968C67.1557 24.714 70.6352 24.714 73.2931 26.0683C75.6311 27.2596 77.532 29.1604 78.7233 31.4984C80.0776 34.1564 80.0776 37.6358 80.0776 44.5948V60.7478C80.0776 67.7068 80.0776 71.1862 78.7233 73.8442C77.532 76.1822 75.6311 78.083 73.2931 79.2743C70.6352 80.6286 67.1557 80.6286 60.1968 80.6286H44.0437C37.0848 80.6286 33.6054 80.6286 30.9474 79.2743C28.6094 78.083 26.7086 76.1822 25.5173 73.8442C24.163 71.1862 24.163 67.7068 24.163 60.7478V44.5948Z" fill="url(#paint0_linear_2089_45692)"/>
<g id="camera">
<path d="M32.7717 43.7089C32.1498 44.8918 32.1498 46.4404 32.1498 49.5375V55.8048C32.1498 58.9019 32.1498 60.4505 32.7717 61.6334C33.3187 62.674 34.1916 63.5199 35.2651 64.0501C36.4856 64.6529 38.0833 64.6529 41.2787 64.6529H50.9148C54.1102 64.6529 55.7079 64.6529 56.9284 64.0501C58.002 63.5199 58.8748 62.674 59.4218 61.6334C60.0437 60.4505 60.0437 58.9019 60.0437 55.8048V49.5375C60.0437 46.4404 60.0437 44.8918 59.4218 43.7089C58.8748 42.6684 58.002 41.8224 56.9284 41.2922C55.7079 40.6895 54.1102 40.6895 50.9148 40.6895H41.2787C38.0833 40.6895 36.4856 40.6895 35.2651 41.2922C34.1916 41.8224 33.3187 42.6684 32.7717 43.7089Z" fill="var(--fill-0, white)"/>
<path d="M62.2184 47.4797L68.4446 42.4213C69.8886 41.2481 72.0888 42.2432 72.0888 44.0694V61.3247C72.0888 63.1422 69.907 64.1402 68.4594 62.9848L62.2354 58.0168C61.6505 57.55 61.3116 56.854 61.3116 56.1196V49.3633C61.3116 48.6363 61.6436 47.9467 62.2184 47.4797Z" fill="var(--fill-0, white)"/>
</g>
</g>
<defs>
<filter id="filter0_f_2089_45692" x="-2.96338" y="-7.96338" width="111.829" height="112.555" filterUnits="userSpaceOnUse" color-interpolation-filters="sRGB">
<feFlood flood-opacity="0" result="BackgroundImageFix"/>
<feBlend mode="normal" in="SourceGraphic" in2="BackgroundImageFix" result="shape"/>
<feGaussianBlur stdDeviation="11.9817" result="effect1_foregroundBlur_2089_45692"/>
</filter>
<linearGradient id="paint0_linear_2089_45692" x1="52.1203" y1="24.714" x2="52.1203" y2="80.6286" gradientUnits="userSpaceOnUse">
<stop stop-color="#9F73ED"/>
<stop offset="1" stop-color="#FD686C"/>
</linearGradient>
</defs>
</svg>
