<svg preserveAspectRatio="none" width="100%" height="100%" overflow="visible" style="display: block;" viewBox="0 0 64 64" fill="none" xmlns="http://www.w3.org/2000/svg">
<g id="Group">
<path id="Vector" d="M31.7332 38.5683C20.5401 34.4865 12.504 24.0268 11.5473 12.2597L11.3241 9.74045H31.9565C48.3794 9.74045 52.5569 9.83611 52.3656 10.155C51.6959 11.2711 33.1045 39.0786 33.0088 39.0467C32.9769 39.0467 32.4029 38.8235 31.7332 38.5683Z" fill="var(--fill-0, white)"/>
<path id="Vector_2" d="M20.2567 55.2011L25.514 47.3153H34.7963H44.0786L38.8214 55.2011L33.5641 63.087H24.2818H14.9995L20.2567 55.2011Z" fill="url(#paint0_linear_2089_45780)"/>
<path id="Vector_3" d="M38.0975 62.627C38.2618 62.3642 40.6275 58.7991 43.3383 54.7247L48.267 47.3317L55.7257 47.3153H63.1845L63.0694 48.5967C62.7409 52.4411 61.2623 55.5954 58.4529 58.4048C56.7115 60.1463 55.1671 61.1813 53.0971 62.0027C50.7149 62.9227 50.3699 62.972 43.8476 63.0377L37.7853 63.1199L38.0975 62.627Z" fill="url(#paint1_linear_2089_45780)"/>
<path id="Vector_4" d="M10.5145 62.167C4.74796 60.0641 0.60787 54.6754 0.115002 48.6132L0 47.3153H10.6295C19.0904 47.3153 21.2426 47.3646 21.144 47.5289C20.799 48.1039 11.221 62.4299 11.1717 62.4135C11.1552 62.4135 10.8595 62.2985 10.5145 62.167Z" fill="url(#paint2_linear_2089_45780)"/>
<path id="Vector_5" d="M0.0980303 28.5535C0.147317 14.671 0.180175 13.1267 0.426609 12.1738C1.23163 9.20019 2.51308 6.91657 4.5667 4.84653C5.38814 4.00866 6.37388 3.10507 6.7846 2.8422C7.81962 2.15219 9.69252 1.19931 10.8425 0.805017C13.159 0.0164289 13.4055 0 31.5923 0C50.2555 0 50.0912 0 52.7856 0.969306C56.8764 2.46434 60.425 5.94727 62.0515 10.0381C63.0865 12.6831 63.0372 11.7631 63.0865 28.5535L63.1522 43.8652H31.5923H0.0323147L0.0980303 28.5535ZM33.4323 28.6356C40.2832 24.8241 41.6303 24.0191 41.8768 23.5755C42.2218 22.9183 42.0903 22.0476 41.5646 21.5712C41.3675 21.3904 37.5888 19.2218 33.1694 16.7739C24.2814 11.8452 24.2978 11.8617 23.3614 12.7981L22.8849 13.2746V22.7048C22.8849 31.1492 22.9178 32.1678 23.1478 32.5128C23.4928 33.0057 24.3307 33.3671 24.8564 33.2521C25.0864 33.2028 28.9472 31.1164 33.4323 28.6356Z" fill="url(#paint3_linear_2089_45780)"/>
</g>
<defs>
<linearGradient id="paint0_linear_2089_45780" x1="43.0401" y1="47.8785" x2="29.883" y2="70.7894" gradientUnits="userSpaceOnUse">
<stop stop-color="#DE2AC6"/>
<stop offset="1" stop-color="#E43E0C"/>
</linearGradient>
<linearGradient id="paint1_linear_2089_45780" x1="62.2773" y1="47.8797" x2="48.2511" y2="69.1686" gradientUnits="userSpaceOnUse">
<stop stop-color="#DE2AC6"/>
<stop offset="1" stop-color="#E43E0C"/>
</linearGradient>
<linearGradient id="paint2_linear_2089_45780" x1="20.392" y1="47.8545" x2="6.36189" y2="66.4139" gradientUnits="userSpaceOnUse">
<stop stop-color="#DE2AC6"/>
<stop offset="1" stop-color="#E43E0C"/>
</linearGradient>
<linearGradient id="paint3_linear_2089_45780" x1="60.8979" y1="1.56662" x2="20.4483" y2="56.538" gradientUnits="userSpaceOnUse">
<stop stop-color="#DE2AC6"/>
<stop offset="1" stop-color="#E43E0C"/>
</linearGradient>
</defs>
</svg>
