<svg preserveAspectRatio="none" width="100%" height="100%" overflow="visible" style="display: block;" viewBox="0 0 87 89" fill="none" xmlns="http://www.w3.org/2000/svg">
<g id="Bg">
<path id="Fill 1" d="M18.1005 13.3679L49.8596 4.85813C61.4331 1.75702 69.8167 6.81599 73.0402 18.8461L81.8773 51.8267C85.1007 63.8568 80.3698 72.4298 68.7963 75.5309L37.0373 84.0407C25.4638 87.1418 17.1104 82.0747 13.8869 70.0447L5.04979 37.064C1.82634 25.034 6.52707 16.469 18.1005 13.3679Z" fill="url(#paint0_linear_2089_45650)"/>
<g id="Fill 2" filter="url(#filter0_f_2089_45650)">
<path d="M26.2991 23.5464L47.8608 17.769C55.7182 15.6636 61.3481 18.8671 63.4273 26.6267L69.1273 47.8997C71.2065 55.6593 67.9327 61.2486 60.0753 63.3539L38.5135 69.1314C30.6561 71.2368 25.0468 68.0277 22.9676 60.2682L17.2675 38.9952C15.1883 31.2356 18.4416 25.6518 26.2991 23.5464Z" fill="var(--fill-0, #30AD31)" fill-opacity="0.5"/>
</g>
</g>
<defs>
<filter id="filter0_f_2089_45650" x="0.65398" y="1.13676" width="85.0848" height="84.6263" filterUnits="userSpaceOnUse" color-interpolation-filters="sRGB">
<feFlood flood-opacity="0" result="BackgroundImageFix"/>
<feBlend mode="normal" in="SourceGraphic" in2="BackgroundImageFix" result="shape"/>
<feGaussianBlur stdDeviation="8" result="effect1_foregroundBlur_2089_45650"/>
</filter>
<linearGradient id="paint0_linear_2089_45650" x1="-3.40228e-06" y1="18.218" x2="65.1973" y2="61.1595" gradientUnits="userSpaceOnUse">
<stop stop-color="#9BF763"/>
<stop offset="1" stop-color="#26AB5B"/>
</linearGradient>
</defs>
</svg>
