<svg preserveAspectRatio="none" width="100%" height="100%" overflow="visible" style="display: block;" viewBox="0 0 36 36" fill="none" xmlns="http://www.w3.org/2000/svg">
<g id="youtube">
<path id="bg" d="M2.51933 11.1551C2.66356 8.93465 4.44875 7.19451 6.67112 7.0844C9.88927 6.92497 14.4889 6.73268 17.9546 6.73268C21.4203 6.73268 26.02 6.92497 29.2381 7.0844C31.4605 7.19451 33.2457 8.93465 33.3899 11.1551C33.5281 13.2824 33.6643 15.9 33.6643 17.9539C33.6643 20.0077 33.5281 22.6253 33.3899 24.7526C33.2457 26.9731 31.4605 28.7132 29.2381 28.8233C26.02 28.9827 21.4203 29.175 17.9546 29.175C14.4889 29.175 9.88927 28.9827 6.67112 28.8233C4.44875 28.7132 2.66356 26.9731 2.51933 24.7526C2.38115 22.6253 2.24497 20.0077 2.24497 17.9539C2.24497 15.9 2.38115 13.2824 2.51933 11.1551Z" fill="var(--fill-0, #FC0D1B)"/>
<path id="play" d="M14.5865 13.466V22.4429L23.5635 17.9545L14.5865 13.466Z" fill="var(--fill-0, white)"/>
</g>
</svg>
