<svg preserveAspectRatio="none" width="100%" height="100%" overflow="visible" style="display: block;" viewBox="0 0 82 85" fill="none" xmlns="http://www.w3.org/2000/svg">
<g id="tiktok" style="mix-blend-mode:plus-lighter" opacity="0.5" clip-path="url(#clip0_2089_45337)" filter="url(#filter0_f_2089_45337)">
<path id="vector" d="M28.2251 48.7008C28.4881 46.5229 29.3813 45.3035 31.0645 44.0535C33.4729 42.3606 36.4813 43.3182 36.4813 43.3182V37.6372C37.2127 37.6186 37.9444 37.6619 38.6678 37.7668V45.0777C38.6678 45.0777 35.6603 44.1201 33.2519 45.8139C31.5696 47.063 30.6746 48.2832 30.4124 50.4611C30.4042 51.6437 30.6261 53.1895 31.6481 54.5262C31.3955 54.3966 31.1379 54.249 30.8755 54.0833C28.6242 52.5715 28.2141 50.3035 28.2251 48.7008ZM51.0897 27.1331C49.4329 25.3176 48.8064 23.4847 48.5799 22.197H50.6641C50.6641 22.197 50.2485 25.5732 53.277 28.8934L53.319 28.9381C52.5028 28.4246 51.7543 27.8186 51.0897 27.1331ZM61.1296 32.2801V39.444C61.1296 39.444 58.4701 39.3398 56.5019 38.8391C53.7538 38.1388 51.9875 37.0648 51.9875 37.0648C51.9875 37.0648 50.7673 36.2988 50.6686 36.2455V51.0388C50.6686 51.8625 50.4431 53.9196 49.7553 55.6352C48.8576 57.8796 47.4721 59.3528 47.2173 59.654C47.2173 59.654 45.5322 61.6454 42.5594 62.9864C39.8798 64.1961 37.5271 64.1655 36.8238 64.1961C36.8238 64.1961 32.7569 64.3572 29.0973 61.9789C28.3059 61.4547 27.5672 60.861 26.8907 60.2054L26.909 60.2185C30.5695 62.5969 34.6356 62.4358 34.6356 62.4358C35.3397 62.4052 37.6924 62.4358 40.3711 61.2261C43.3412 59.885 45.029 57.8936 45.029 57.8936C45.2811 57.5925 46.6729 56.1193 47.5671 53.874C48.2529 52.1592 48.4804 50.1013 48.4804 49.2776V34.486C48.579 34.5403 49.7983 35.3062 49.7983 35.3062C49.7983 35.3062 51.5655 36.3811 54.3136 37.0805C56.2827 37.5812 58.9414 37.6854 58.9414 37.6854V32.0718C59.851 32.2758 60.6264 32.3309 61.1296 32.2801Z" fill="var(--fill-0, #EE1D52)"/>
<path id="vector_2" d="M58.9427 32.0718V37.6836C58.9427 37.6836 56.2841 37.5795 54.315 37.0788C51.5668 36.3785 49.7996 35.3045 49.7996 35.3045C49.7996 35.3045 48.5803 34.5385 48.4817 34.4843V49.2794C48.4817 50.1031 48.2561 52.161 47.5684 53.8758C46.6706 56.1211 45.2851 57.5943 45.0303 57.8954C45.0303 57.8954 43.3443 59.8868 40.3725 61.2278C37.6937 62.4376 35.3411 62.4069 34.6369 62.4376C34.6369 62.4376 30.5709 62.5986 26.9103 60.2203L26.8921 60.2072C26.5056 59.833 26.1418 59.4378 25.8025 59.0237C24.6344 57.5995 23.9183 55.9154 23.7384 55.4348C23.7381 55.4328 23.7381 55.4307 23.7384 55.4287C23.4489 54.5936 22.8406 52.5882 22.9237 50.6458C23.0708 47.2188 24.2763 45.1153 24.5951 44.5884C25.4393 43.1514 26.5372 41.8657 27.8401 40.7885C28.9898 39.859 30.2929 39.1194 31.696 38.6001C33.2129 37.9904 34.8372 37.6636 36.4818 37.6372V43.3182C36.4818 43.3182 33.4733 42.3641 31.0659 44.0535C29.3826 45.3035 28.4894 46.5229 28.2264 48.7007C28.2154 50.3035 28.6255 52.5715 30.875 54.0841C31.1374 54.2504 31.395 54.3981 31.6476 54.5271C32.0406 55.0379 32.5189 55.483 33.0633 55.8444C35.2607 57.2354 37.1019 57.3325 39.4564 56.4292C41.0264 55.8252 42.2082 54.464 42.7562 52.9558C43.1005 52.0139 43.0959 51.0659 43.0959 50.0855V22.197H48.5758C48.8023 23.4847 49.4288 25.3176 51.0855 27.1331C51.7501 27.8186 52.4987 28.4246 53.3149 28.9381C53.556 29.1875 54.789 30.4209 56.3717 31.1781C57.1902 31.5695 58.0528 31.8693 58.9427 32.0718V32.0718Z" fill="var(--fill-0, black)"/>
<path id="vector_3" d="M21.5558 53.6898V53.6942L21.6918 54.0627C21.6762 54.0198 21.6257 53.8894 21.5558 53.6898Z" fill="var(--fill-0, #69C9D0)"/>
<path id="vector_4" d="M31.6946 38.5999C30.2915 39.1192 28.9884 39.8587 27.8387 40.7882C26.5354 41.8678 25.4377 43.1562 24.5946 44.596C24.2759 45.1212 23.0703 47.2264 22.9233 50.6534C22.8401 52.5958 23.4484 54.6012 23.7379 55.4363C23.7376 55.4383 23.7376 55.4404 23.7379 55.4424C23.9206 55.9186 24.6339 57.6028 25.802 59.0313C26.1413 59.4454 26.5051 59.8406 26.8916 60.2148C25.6533 59.394 24.549 58.4016 23.6146 57.2701C22.4566 55.8582 21.7424 54.1915 21.556 53.6996C21.5558 53.6961 21.5558 53.6926 21.556 53.6891V53.683C21.2656 52.8487 20.6555 50.8425 20.7405 48.8974C20.8875 45.4705 22.0931 43.367 22.4118 42.84C23.2547 41.4001 24.3524 40.1117 25.6559 39.0323C26.8053 38.1025 28.1085 37.3629 29.5118 36.8439C30.3872 36.4958 31.299 36.2391 32.2317 36.078C33.6372 35.8428 35.0727 35.8225 36.4849 36.0176V37.637C34.8388 37.6628 33.2129 37.9896 31.6946 38.5999Z" fill="var(--fill-0, #69C9D0)"/>
<path id="vector_5" d="M48.5792 22.1967H43.0994V50.0861C43.0994 51.0665 43.0994 52.0119 42.7596 52.9564C42.2062 54.4637 41.0289 55.8249 39.4599 56.4289C37.1045 57.3358 35.2632 57.2351 33.0667 55.8442C32.5215 55.4844 32.0419 55.0407 31.6475 54.5312C33.5188 55.4879 35.1938 55.4713 37.2689 54.673C38.837 54.069 40.0161 52.7078 40.5677 51.1996C40.9129 50.2577 40.9084 49.3097 40.9084 48.3302V20.4355H48.4751C48.4751 20.4355 48.3902 21.1288 48.5792 22.1967ZM58.9416 30.5195V32.0715C58.0533 31.8687 57.1922 31.5689 56.3752 31.1778C54.7925 30.4206 53.5595 29.1873 53.3184 28.9378C53.5982 29.1138 53.8885 29.274 54.1878 29.4175C56.1122 30.3383 58.0073 30.6132 58.9416 30.5195Z" fill="var(--fill-0, #69C9D0)"/>
</g>
<defs>
<filter id="filter0_f_2089_45337" x="-6.19812" y="-10.1981" width="94.2579" height="94.2579" filterUnits="userSpaceOnUse" color-interpolation-filters="sRGB">
<feFlood flood-opacity="0" result="BackgroundImageFix"/>
<feBlend mode="normal" in="SourceGraphic" in2="BackgroundImageFix" result="shape"/>
<feGaussianBlur stdDeviation="10.0991" result="effect1_foregroundBlur_2089_45337"/>
</filter>
<clipPath id="clip0_2089_45337">
<rect width="53.8616" height="53.8616" fill="white" transform="translate(14 10)"/>
</clipPath>
</defs>
</svg>
