<svg preserveAspectRatio="none" width="100%" height="100%" overflow="visible" style="display: block;" viewBox="0 0 101 101" fill="none" xmlns="http://www.w3.org/2000/svg">
<g id="Bg">
<path id="Discount" d="M88.0711 42.117L85.13 39.177C83.9863 38.0336 83.3327 36.482 83.3327 34.8527V30.6428C83.3327 23.8645 77.8182 18.356 71.0374 18.356H66.83C65.1961 18.356 63.6439 17.6986 62.5001 16.5553L59.5182 13.5785C54.6981 8.80104 46.8961 8.80104 42.1169 13.6153L39.1758 16.5553C38.0321 17.6986 36.4799 18.356 34.8459 18.356H30.6386C23.8578 18.356 18.3433 23.8645 18.3433 30.6428V34.8078C18.3433 36.482 17.6897 38.0336 16.546 39.177L13.5641 42.1619C8.78483 46.9761 8.82568 54.7794 13.6049 59.5528L16.546 62.452C17.6897 63.6361 18.3433 65.1878 18.3433 66.8252V71.027C18.3433 77.8053 23.8578 83.3219 30.6386 83.3219H34.8459C36.4799 83.3219 38.0321 83.9711 39.1758 85.1145L42.1578 88.0994C44.5678 90.4677 47.7131 91.6478 50.8584 91.6478C54.0037 91.6478 57.149 90.4677 59.5591 88.0545L62.5001 85.1145C63.6439 83.9711 65.1961 83.3219 66.83 83.3219H71.0374C77.8182 83.3219 83.3327 77.8053 83.3327 71.027V66.8252C83.3327 65.1878 83.9863 63.6361 85.13 62.4928L88.0302 59.5936C88.0711 59.5528 88.1119 59.516 88.1528 59.4711C90.4403 57.1477 91.7066 54.0403 91.6657 50.7736C91.6657 47.507 90.3994 44.4036 88.0711 42.117V42.117Z" fill="url(#paint0_linear_2089_45656)"/>
<g id="Discount_2" opacity="0.5" filter="url(#filter0_f_2089_45656)">
<path d="M75.4877 45.0591L73.5405 43.1126C72.7832 42.3556 72.3505 41.3283 72.3505 40.2496V37.4622C72.3505 32.9744 68.6994 29.3274 64.2099 29.3274H61.4243C60.3425 29.3274 59.3148 28.8921 58.5575 28.1351L56.5832 26.1642C53.3919 23.0011 48.2263 23.0011 45.062 26.1886L43.1148 28.1351C42.3575 28.8921 41.3298 29.3274 40.248 29.3274H37.4624C32.9729 29.3274 29.3218 32.9744 29.3218 37.4622V40.2198C29.3218 41.3283 28.8891 42.3556 28.1319 43.1126L26.1576 45.0889C22.9933 48.2763 23.0204 53.4428 26.1846 56.6032L28.1319 58.5227C28.8891 59.3067 29.3218 60.334 29.3218 61.4182V64.2001C29.3218 68.6879 32.9729 72.3404 37.4624 72.3404H40.248C41.3298 72.3404 42.3575 72.7702 43.1148 73.5272L45.0891 75.5035C46.6847 77.0716 48.7672 77.8529 50.8497 77.8529C52.9321 77.8529 55.0146 77.0715 56.6103 75.4738L58.5575 73.5272C59.3148 72.7702 60.3425 72.3404 61.4243 72.3404H64.2099C68.6994 72.3404 72.3505 68.6879 72.3505 64.2001V61.4182C72.3505 60.334 72.7832 59.3067 73.5405 58.5497L75.4607 56.6302C75.4877 56.6032 75.5147 56.5789 75.5418 56.5491C77.0563 55.0108 77.8947 52.9534 77.8677 50.7906C77.8677 48.6278 77.0293 46.5731 75.4877 45.0591V45.0591Z" fill="var(--fill-0, #E46800)"/>
</g>
</g>
<defs>
<filter id="filter0_f_2089_45656" x="0.797852" y="0.794922" width="100.07" height="100.058" filterUnits="userSpaceOnUse" color-interpolation-filters="sRGB">
<feFlood flood-opacity="0" result="BackgroundImageFix"/>
<feBlend mode="normal" in="SourceGraphic" in2="BackgroundImageFix" result="shape"/>
<feGaussianBlur stdDeviation="11.5" result="effect1_foregroundBlur_2089_45656"/>
</filter>
<linearGradient id="paint0_linear_2089_45656" x1="50.8333" y1="10" x2="50.8333" y2="91.6478" gradientUnits="userSpaceOnUse">
<stop stop-color="#FFFB7F"/>
<stop offset="1" stop-color="#FFA20D"/>
</linearGradient>
</defs>
</svg>
