<svg preserveAspectRatio="none" width="100%" height="100%" overflow="visible" style="display: block;" viewBox="0 0 79 79" fill="none" xmlns="http://www.w3.org/2000/svg">
<g id="avito logo" style="mix-blend-mode:plus-lighter" opacity="0.5" filter="url(#filter0_f_2089_45406)">
<path id="bg" d="M18.4955 33.6724C18.4955 28.4532 18.4955 25.8436 19.5112 23.8502C20.4047 22.0967 21.8303 20.671 23.5838 19.7776C25.5773 18.7619 28.1869 18.7619 33.4061 18.7619H45.5209C50.7401 18.7619 53.3497 18.7619 55.3431 19.7776C57.0966 20.671 58.5223 22.0967 59.4157 23.8502C60.4314 25.8436 60.4314 28.4532 60.4314 33.6724V45.7872C60.4314 51.0064 60.4314 53.616 59.4157 55.6095C58.5223 57.363 57.0966 58.7886 55.3431 59.6821C53.3497 60.6978 50.7401 60.6978 45.5209 60.6978H33.4061C28.1869 60.6978 25.5773 60.6978 23.5838 59.6821C21.8303 58.7886 20.4047 57.363 19.5112 55.6095C18.4955 53.616 18.4955 51.0064 18.4955 45.7872V33.6724Z" fill="url(#paint0_linear_2089_45406)"/>
<g id="camera">
<path d="M24.9532 33.0083C24.4868 33.8955 24.4868 35.0569 24.4868 37.3797V42.0802C24.4868 44.4031 24.4868 45.5645 24.9532 46.4517C25.3635 47.2321 26.0181 47.8666 26.8233 48.2642C27.7387 48.7162 28.937 48.7162 31.3335 48.7162H38.5606C40.9571 48.7162 42.1554 48.7162 43.0708 48.2642C43.876 47.8666 44.5306 47.2321 44.9409 46.4517C45.4073 45.5645 45.4073 44.4031 45.4073 42.0802V37.3797C45.4073 35.0569 45.4073 33.8955 44.9409 33.0083C44.5306 32.2279 43.876 31.5934 43.0708 31.1958C42.1554 30.7437 40.9571 30.7437 38.5606 30.7437H31.3335C28.937 30.7437 27.7387 30.7437 26.8233 31.1958C26.0181 31.5934 25.3635 32.2279 24.9532 33.0083Z" fill="var(--fill-0, white)"/>
<path d="M47.0383 35.8364L51.7079 32.0426C52.7909 31.1627 54.4411 31.909 54.4411 33.2787V46.2202C54.4411 47.5833 52.8047 48.3318 51.7191 47.4652L47.051 43.7392C46.6123 43.3891 46.3582 42.8671 46.3582 42.3163V37.2491C46.3582 36.7038 46.6072 36.1866 47.0383 35.8364Z" fill="var(--fill-0, white)"/>
</g>
</g>
<defs>
<filter id="filter0_f_2089_45406" x="-2.97254" y="-6.97254" width="83.8718" height="85.6428" filterUnits="userSpaceOnUse" color-interpolation-filters="sRGB">
<feFlood flood-opacity="0" result="BackgroundImageFix"/>
<feBlend mode="normal" in="SourceGraphic" in2="BackgroundImageFix" result="shape"/>
<feGaussianBlur stdDeviation="8.98627" result="effect1_foregroundBlur_2089_45406"/>
</filter>
<linearGradient id="paint0_linear_2089_45406" x1="39.4635" y1="18.7619" x2="39.4635" y2="60.6978" gradientUnits="userSpaceOnUse">
<stop stop-color="#9F73ED"/>
<stop offset="1" stop-color="#FD686C"/>
</linearGradient>
</defs>
</svg>
