<svg preserveAspectRatio="none" width="100%" height="100%" overflow="visible" style="display: block;" viewBox="0 0 48 48" fill="none" xmlns="http://www.w3.org/2000/svg">
<g id="avito logo">
<path id="bg" d="M2.99455 17.9059C2.99455 12.6868 2.99455 10.0772 4.01027 8.0837C4.90372 6.3302 6.32936 4.90456 8.08286 4.01111C10.0763 2.99539 12.6859 2.99539 17.9051 2.99539H30.0199C35.2391 2.99539 37.8487 2.99539 39.8422 4.01111C41.5957 4.90456 43.0213 6.3302 43.9147 8.0837C44.9305 10.0772 44.9305 12.6868 44.9305 17.9059V30.0208C44.9305 35.2399 44.9305 37.8495 43.9147 39.843C43.0213 41.5965 41.5957 43.0221 39.8422 43.9156C37.8487 44.9313 35.2391 44.9313 30.0199 44.9313H17.9051C12.6859 44.9313 10.0763 44.9313 8.08286 43.9156C6.32936 43.0221 4.90372 41.5965 4.01027 39.843C2.99455 37.8495 2.99455 35.2399 2.99455 30.0208V17.9059Z" fill="url(#paint0_linear_2089_45705)"/>
<g id="avito logo_2">
<path id="c" d="M31.3518 40.2241C25.5616 40.2241 20.8678 35.5303 20.8678 29.7401C20.8678 23.95 25.5616 19.2561 31.3518 19.2561C37.1419 19.2561 41.8357 23.95 41.8357 29.7401C41.8357 35.5303 37.1419 40.2241 31.3518 40.2241Z" fill="var(--fill-0, #99CE26)"/>
<path id="d" d="M29.2081 16.7354C27.2781 16.7354 25.7135 15.1708 25.7135 13.2408C25.7135 11.3107 27.2781 9.7461 29.2081 9.7461C31.1382 9.7461 32.7028 11.3107 32.7028 13.2408C32.7028 15.1708 31.1382 16.7354 29.2081 16.7354Z" fill="var(--fill-0, #FD6165)"/>
<path id="e" d="M14.8202 24.3156C10.1329 24.3156 6.33312 20.5158 6.33312 15.8285C6.33312 11.1413 10.1329 7.3415 14.8202 7.3415C19.5074 7.3415 23.3072 11.1413 23.3072 15.8285C23.3072 20.5158 19.5074 24.3156 14.8202 24.3156Z" fill="var(--fill-0, #00AFF6)"/>
<path id="f" d="M12.4199 38.8181C9.11124 38.8181 6.42905 36.1359 6.42905 32.8273C6.42905 29.5186 9.11124 26.8364 12.4199 26.8364C15.7285 26.8364 18.4107 29.5186 18.4107 32.8273C18.4107 36.1359 15.7285 38.8181 12.4199 38.8181Z" fill="var(--fill-0, #A269F6)"/>
</g>
</g>
<defs>
<linearGradient id="paint0_linear_2089_45705" x1="23.9625" y1="2.99539" x2="23.9625" y2="44.9313" gradientUnits="userSpaceOnUse">
<stop stop-color="#F3F3F3"/>
<stop offset="1" stop-color="#E9E9E9"/>
</linearGradient>
</defs>
</svg>
