<svg preserveAspectRatio="none" width="100%" height="100%" overflow="visible" style="display: block;" viewBox="0 0 56 56" fill="none" xmlns="http://www.w3.org/2000/svg">
<path id="bg" d="M0 19.8807C0 12.9218 0 9.44237 1.35429 6.78442C2.54556 4.44642 4.44642 2.54556 6.78442 1.35429C9.44237 0 12.9218 0 19.8807 0H36.0338C42.9927 0 46.4722 0 49.1301 1.35429C51.4681 2.54556 53.369 4.44642 54.5603 6.78442C55.9146 9.44237 55.9146 12.9218 55.9146 19.8807V36.0338C55.9146 42.9927 55.9146 46.4722 54.5603 49.1301C53.369 51.4681 51.4681 53.369 49.1301 54.5603C46.4722 55.9146 42.9927 55.9146 36.0338 55.9146H19.8807C12.9218 55.9146 9.44237 55.9146 6.78442 54.5603C4.44642 53.369 2.54556 51.4681 1.35429 49.1301C0 46.4722 0 42.9927 0 36.0338V19.8807Z" fill="url(#paint0_linear_2089_45570)"/>
<defs>
<linearGradient id="paint0_linear_2089_45570" x1="53.9176" y1="1.99695" x2="-9.56469e-08" y2="52.9191" gradientUnits="userSpaceOnUse">
<stop stop-color="#5D019E"/>
<stop offset="1" stop-color="#DD02BE"/>
</linearGradient>
</defs>
</svg>
