<svg preserveAspectRatio="none" width="100%" height="100%" overflow="visible" style="display: block;" viewBox="0 0 119 119" fill="none" xmlns="http://www.w3.org/2000/svg">
<g id="WB" style="mix-blend-mode:plus-lighter" opacity="0.5" filter="url(#filter0_f_2089_45774)">
<path id="bg" d="M27.5966 50.5038C27.5966 42.5935 27.5966 38.6384 29.136 35.6171C30.4901 32.9595 32.6508 30.7988 35.3084 29.4447C38.3297 27.9053 42.2849 27.9053 50.1951 27.9053H68.5563C76.4666 27.9053 80.4217 27.9053 83.443 29.4447C86.1006 30.7988 88.2613 32.9595 89.6154 35.6171C91.1548 38.6384 91.1548 42.5935 91.1548 50.5038V68.865C91.1548 76.7752 91.1548 80.7303 89.6154 83.7517C88.2613 86.4093 86.1006 88.57 83.443 89.9241C80.4217 91.4635 76.4666 91.4635 68.5563 91.4635H50.1951C42.2849 91.4635 38.3297 91.4635 35.3084 89.9241C32.6508 88.57 30.4901 86.4093 29.136 83.7517C27.5966 80.7303 27.5966 76.7752 27.5966 68.865V50.5038Z" fill="url(#paint0_linear_2089_45774)"/>
<g id="camera">
<path d="M37.3804 49.4968C36.6736 50.8415 36.6736 52.6017 36.6736 56.1222V63.2463C36.6736 66.7668 36.6736 68.527 37.3804 69.8717C38.0022 71.0545 38.9944 72.0161 40.2147 72.6188C41.6021 73.3039 43.4182 73.3039 47.0504 73.3039H58.0038C61.636 73.3039 63.4521 73.3039 64.8395 72.6188C66.0598 72.0161 67.052 71.0545 67.6738 69.8717C68.3806 68.527 68.3806 66.7668 68.3806 63.2463V56.1222C68.3806 52.6017 68.3806 50.8415 67.6738 49.4968C67.052 48.3141 66.0598 47.3524 64.8395 46.7498C63.4521 46.0646 61.636 46.0646 58.0038 46.0646H47.0504C43.4182 46.0646 41.6021 46.0646 40.2147 46.7498C38.9944 47.3524 38.0022 48.3141 37.3804 49.4968Z" fill="var(--fill-0, white)"/>
<path d="M70.8526 53.7831L77.9299 48.0332C79.5713 46.6996 82.0723 47.8307 82.0723 49.9066V69.5208C82.0723 71.5867 79.5922 72.7212 77.9468 71.4078L70.8719 65.7607C70.207 65.23 69.8219 64.4389 69.8219 63.6041V55.9242C69.8219 55.0978 70.1993 54.3139 70.8526 53.7831Z" fill="var(--fill-0, white)"/>
</g>
</g>
<defs>
<filter id="filter0_f_2089_45774" x="-3.23926" y="-9.23926" width="127.117" height="127.942" filterUnits="userSpaceOnUse" color-interpolation-filters="sRGB">
<feFlood flood-opacity="0" result="BackgroundImageFix"/>
<feBlend mode="normal" in="SourceGraphic" in2="BackgroundImageFix" result="shape"/>
<feGaussianBlur stdDeviation="13.6196" result="effect1_foregroundBlur_2089_45774"/>
</filter>
<linearGradient id="paint0_linear_2089_45774" x1="59.3757" y1="27.9053" x2="59.3757" y2="91.4635" gradientUnits="userSpaceOnUse">
<stop stop-color="#FF200C"/>
<stop offset="1" stop-color="#35032A"/>
</linearGradient>
</defs>
</svg>
