<svg preserveAspectRatio="none" width="100%" height="100%" overflow="visible" style="display: block;" viewBox="0 0 45 45" fill="none" xmlns="http://www.w3.org/2000/svg">
<g id="instagram">
<rect id="bg" x="2.80507" y="2.80552" width="39.2741" height="39.2741" rx="8.41588" fill="url(#paint0_radial_2089_45602)"/>
<rect id="bg_2" x="2.80507" y="2.80552" width="39.2741" height="39.2741" rx="8.41588" fill="url(#paint1_radial_2089_45602)"/>
<rect id="bg_3" x="2.80507" y="2.80552" width="39.2741" height="39.2741" rx="8.41588" fill="url(#paint2_radial_2089_45602)"/>
<g id="instagram_2">
<path d="M32.2603 14.7276C32.2603 15.8896 31.3183 16.8316 30.1563 16.8316C28.9943 16.8316 28.0523 15.8896 28.0523 14.7276C28.0523 13.5656 28.9943 12.6237 30.1563 12.6237C31.3183 12.6237 32.2603 13.5656 32.2603 14.7276Z" fill="var(--fill-0, white)"/>
<path fill-rule="evenodd" clip-rule="evenodd" d="M22.4418 29.4554C26.3151 29.4554 29.455 26.3155 29.455 22.4422C29.455 18.5689 26.3151 15.429 22.4418 15.429C18.5685 15.429 15.4285 18.5689 15.4285 22.4422C15.4285 26.3155 18.5685 29.4554 22.4418 29.4554ZM22.4418 26.6501C24.7657 26.6501 26.6497 24.7662 26.6497 22.4422C26.6497 20.1182 24.7657 18.2343 22.4418 18.2343C20.1178 18.2343 18.2338 20.1182 18.2338 22.4422C18.2338 24.7662 20.1178 26.6501 22.4418 26.6501Z" fill="var(--fill-0, white)"/>
<path fill-rule="evenodd" clip-rule="evenodd" d="M8.41528 21.8811C8.41528 17.1678 8.41528 14.8111 9.33256 13.0109C10.1394 11.4273 11.4269 10.1399 13.0104 9.333C14.8107 8.41572 17.1674 8.41572 21.8807 8.41572H23.0028C27.7162 8.41572 30.0728 8.41572 31.8731 9.333C33.4566 10.1399 34.7441 11.4273 35.551 13.0109C36.4682 14.8111 36.4682 17.1678 36.4682 21.8811V23.0033C36.4682 27.7166 36.4682 30.0733 35.551 31.8735C34.7441 33.4571 33.4566 34.7445 31.8731 35.5514C30.0728 36.4687 27.7162 36.4687 23.0028 36.4687H21.8807C17.1674 36.4687 14.8107 36.4687 13.0104 35.5514C11.4269 34.7445 10.1394 33.4571 9.33256 31.8735C8.41528 30.0733 8.41528 27.7166 8.41528 23.0033V21.8811ZM21.8807 11.221H23.0028C25.4058 11.221 27.0393 11.2232 28.3019 11.3264C29.5318 11.4268 30.1608 11.609 30.5995 11.8325C31.6552 12.3704 32.5135 13.2288 33.0514 14.2845C33.275 14.7232 33.4571 15.3522 33.5576 16.582C33.6608 17.8447 33.6629 19.4782 33.6629 21.8811V23.0033C33.6629 25.4062 33.6608 27.0397 33.5576 28.3024C33.4571 29.5322 33.275 30.1612 33.0514 30.5999C32.5135 31.6556 31.6552 32.514 30.5995 33.0519C30.1608 33.2754 29.5318 33.4575 28.3019 33.558C27.0393 33.6612 25.4058 33.6634 23.0028 33.6634H21.8807C19.4777 33.6634 17.8442 33.6612 16.5816 33.558C15.3517 33.4575 14.7228 33.2754 14.284 33.0519C13.2283 32.514 12.37 31.6556 11.8321 30.5999C11.6085 30.1612 11.4264 29.5322 11.3259 28.3024C11.2228 27.0397 11.2206 25.4062 11.2206 23.0033V21.8811C11.2206 19.4782 11.2228 17.8447 11.3259 16.582C11.4264 15.3522 11.6085 14.7232 11.8321 14.2845C12.37 13.2288 13.2283 12.3704 14.284 11.8325C14.7228 11.609 15.3517 11.4268 16.5816 11.3264C17.8442 11.2232 19.4777 11.221 21.8807 11.221Z" fill="var(--fill-0, white)"/>
</g>
</g>
<defs>
<radialGradient id="paint0_radial_2089_45602" cx="0" cy="0" r="1" gradientUnits="userSpaceOnUse" gradientTransform="translate(16.8315 32.2611) rotate(-55.3758) scale(35.795)">
<stop stop-color="#B13589"/>
<stop offset="0.79309" stop-color="#C62F94"/>
<stop offset="1" stop-color="#8A3AC8"/>
</radialGradient>
<radialGradient id="paint1_radial_2089_45602" cx="0" cy="0" r="1" gradientUnits="userSpaceOnUse" gradientTransform="translate(15.4289 43.4823) rotate(-65.1363) scale(31.6918)">
<stop stop-color="#E0E8B7"/>
<stop offset="0.444662" stop-color="#FB8A2E"/>
<stop offset="0.71474" stop-color="#E2425C"/>
<stop offset="1" stop-color="#E2425C" stop-opacity="0"/>
</radialGradient>
<radialGradient id="paint2_radial_2089_45602" cx="0" cy="0" r="1" gradientUnits="userSpaceOnUse" gradientTransform="translate(0.701102 4.20816) rotate(-8.1301) scale(54.5502 11.6677)">
<stop offset="0.156701" stop-color="#406ADC"/>
<stop offset="0.467799" stop-color="#6A45BE"/>
<stop offset="1" stop-color="#6A45BE" stop-opacity="0"/>
</radialGradient>
</defs>
</svg>
