<svg preserveAspectRatio="none" width="100%" height="100%" overflow="visible" style="display: block;" viewBox="0 0 40 40" fill="none" xmlns="http://www.w3.org/2000/svg">
<g id="wordpress logo">
<path id="Vector" d="M4.45139 20.0002C4.45139 26.1536 8.02655 31.4727 13.2143 33.9927L5.79717 13.6723C4.93397 15.606 4.45139 17.7453 4.45139 20.0002ZM30.4959 19.2157C30.4959 17.2933 29.8049 15.9628 29.2141 14.9274C28.4251 13.6468 27.6865 12.5632 27.6865 11.2809C27.6865 9.85298 28.7695 8.52193 30.2982 8.52193C30.3662 8.52193 30.4307 8.53042 30.4987 8.53382C27.7324 5.99972 24.0479 4.45343 19.9987 4.45343C14.5663 4.45343 9.7892 7.23902 7.00702 11.4604C7.37291 11.4718 7.71616 11.4791 8.00956 11.4791C9.63457 11.4791 12.1523 11.2803 12.1523 11.2803C12.99 11.2316 13.0902 12.4636 12.2519 12.5632C12.2519 12.5632 11.4097 12.6612 10.4717 12.7111L16.1347 29.552L19.5371 19.3471L17.1157 12.7105C16.278 12.6607 15.485 12.5627 15.485 12.5627C14.6461 12.5123 14.7441 11.2311 15.5835 11.2798C15.5835 11.2798 18.1505 11.4786 19.6781 11.4786C21.3042 11.4786 23.8219 11.2798 23.8219 11.2798C24.6602 11.2311 24.7593 12.463 23.9216 12.5627C23.9216 12.5627 23.0782 12.6607 22.1425 12.7105L27.7613 29.424L29.3127 24.2425C30.0994 22.221 30.4959 20.5473 30.4959 19.2157ZM20.2722 21.3584L15.6068 34.9153C17.0001 35.326 18.4733 35.5486 19.9987 35.5486C21.8095 35.5486 23.5461 35.2353 25.162 34.6678C25.1207 34.6015 25.0822 34.5313 25.0516 34.4526L20.2722 21.3584ZM33.6434 12.5406C33.7091 13.0362 33.7482 13.5669 33.7482 14.1395C33.7482 15.7176 33.4531 17.491 32.565 19.7085L27.8162 33.4393C32.4398 30.7437 35.5477 25.7356 35.5477 19.9996C35.5477 17.2961 34.8561 14.7558 33.6434 12.5406ZM1.87424 20.0002C1.87424 29.995 10.0056 38.1252 19.9987 38.1252C29.9923 38.1252 38.1242 29.995 38.1242 20.0002C38.1242 10.0059 29.9923 1.87515 19.9987 1.87515C10.0056 1.87515 1.87424 10.0059 1.87424 20.0002ZM2.70573 20.0002C2.70573 10.4653 10.4638 2.70834 19.9987 2.70834C29.5353 2.70834 37.2933 10.4653 37.2933 20.0002C37.2933 29.5356 29.5353 37.2942 19.9987 37.2942C10.4638 37.2942 2.70573 29.5356 2.70573 20.0002Z" fill="var(--fill-0, white)"/>
</g>
</svg>
