<svg preserveAspectRatio="none" width="100%" height="100%" overflow="visible" style="display: block;" viewBox="0 0 49 49" fill="none" xmlns="http://www.w3.org/2000/svg">
<g id="Group-6">
<path id="Stroke-4" fill-rule="evenodd" clip-rule="evenodd" d="M47.6667 24.3335C47.6667 37.22 37.2207 47.6667 24.3333 47.6667C11.4467 47.6667 1 37.22 1 24.3335C1 11.4467 11.4467 1 24.3333 1C37.2207 1 47.6667 11.4467 47.6667 24.3335Z" fill="var(--fill-0, #F3F3F3)" stroke="var(--stroke-0, black)" stroke-width="1.56015"/>
<path id="Fill-1" fill-rule="evenodd" clip-rule="evenodd" d="M25.7269 21.6201V38.3923H22.4322V20.4518L25.7269 21.6201Z" fill="var(--fill-0, black)"/>
<path id="Fill-2" fill-rule="evenodd" clip-rule="evenodd" d="M13.0867 20.142C12.9558 15.7647 15.266 13.5325 18.2725 13.5325C20.1032 13.5325 21.4978 14.1014 24.4611 15.5022C26.6404 16.5526 28.2527 17.3408 29.8653 17.3408C31.4344 17.3408 32.1755 16.0712 32.2187 13.6637H34.7902C35.0079 18.5227 32.5237 20.2736 29.8221 20.2736C28.0786 20.2736 26.5095 19.7487 23.5027 18.3479C21.4542 17.3408 19.8419 16.4217 18.2725 16.4217C16.7038 16.4217 15.745 17.516 15.7014 20.142H13.0867Z" fill="var(--fill-0, black)"/>
</g>
</svg>
