<svg preserveAspectRatio="none" width="100%" height="100%" overflow="visible" style="display: block;" viewBox="0 0 35 35" fill="none" xmlns="http://www.w3.org/2000/svg">
<g id="xbox">
<circle id="vector" opacity="0.852" cx="17.5" cy="17.5" r="17.5" fill="url(#paint0_radial_2089_45538)"/>
<path id="vector_2" d="M5.94016 30.6666C5.91628 30.6492 5.89182 30.627 5.86734 30.6001C5.41434 30.188 4.6765 29.538 3.90547 28.5556C3.23957 27.1111 3.61703 24.685 5.25576 21.2594C7.56791 16.4262 11.2673 11.5188 12.7841 9.77814C12.3525 9.29666 11.0158 7.97817 9.12168 6.55597C7.22757 5.13378 5.84767 4.9881 5.36674 5.07452C5.81068 4.59305 6.84652 3.68566 7.71589 3.07456C10.4091 1.74125 15.3861 3.99429 17.5194 5.27822V14.1114C12.0812 18.2965 7.04999 24.7593 6.03264 27.2778C5.25617 29.2 5.56313 30.266 5.86734 30.6001C5.89251 30.623 5.9168 30.6452 5.94016 30.6666Z" fill="url(#paint1_linear_2089_45538)"/>
<path id="vector_3" d="M5.94007 30.6662C5.91619 30.6488 5.89173 30.6266 5.86725 30.5997C5.41425 30.1876 4.67641 29.5376 3.90537 28.5552C3.23948 27.1108 3.61693 24.6846 5.25567 21.259C7.94001 15.6477 12.784 9.77774 12.784 9.77774C12.784 9.77774 13.6489 11.9255 15.6119 15.6477C10.5563 20.1292 7.04989 24.7589 6.03255 27.2774C5.25607 29.1996 5.56303 30.2657 5.86725 30.5997C5.89241 30.6226 5.9167 30.6448 5.94007 30.6662Z" fill="url(#paint2_linear_2089_45538)"/>
<path id="vector_4" d="M29.0983 30.6667C29.1222 30.6493 29.1467 30.6271 29.1712 30.6002C29.6242 30.1881 30.362 29.5381 31.133 28.5557C31.7989 27.1112 31.4215 24.6851 29.7827 21.2595C27.4706 16.4263 23.7712 11.5189 22.2544 9.77823C22.686 9.29676 24.0227 7.97827 25.9168 6.55607C27.8109 5.13387 29.1908 4.9882 29.6718 5.07462C29.2278 4.59314 28.192 3.68575 27.3226 3.07465C24.6294 1.74134 19.6524 3.99439 17.5191 5.27832V14.1115C22.9573 18.2966 27.9885 24.7594 29.0059 27.2779C29.7823 29.2001 29.4754 30.2661 29.1712 30.6002C29.146 30.6231 29.1217 30.6453 29.0983 30.6667Z" fill="url(#paint3_linear_2089_45538)"/>
<path id="vector_5" d="M29.0986 30.6664C29.1225 30.6489 29.147 30.6268 29.1714 30.5999C29.6244 30.1878 30.3623 29.5377 31.1333 28.5553C31.7992 27.1109 31.4217 24.6847 29.783 21.2591C27.0987 15.6478 22.2546 9.77787 22.2546 9.77787C22.2546 9.77787 21.3897 11.9256 19.4268 15.6478C24.4823 20.1293 27.9888 24.7591 29.0061 27.2775C29.7826 29.1997 29.4756 30.2658 29.1714 30.5999C29.1463 30.6228 29.122 30.6449 29.0986 30.6664Z" fill="url(#paint4_linear_2089_45538)"/>
</g>
<defs>
<radialGradient id="paint0_radial_2089_45538" cx="0" cy="0" r="1" gradientUnits="userSpaceOnUse" gradientTransform="translate(17.5 15.625) rotate(90.0548) scale(19.375)">
<stop stop-color="#FAFAFA"/>
<stop offset="0.499976" stop-color="#EFEFEF"/>
<stop offset="0.828794" stop-color="#C0BEC0"/>
<stop offset="1" stop-color="#879288"/>
</radialGradient>
<linearGradient id="paint1_linear_2089_45538" x1="13.7416" y1="3.40737" x2="14.0379" y2="13.4814" gradientUnits="userSpaceOnUse">
<stop stop-color="#00658E"/>
<stop offset="1" stop-color="#3290B6"/>
</linearGradient>
<linearGradient id="paint2_linear_2089_45538" x1="10.186" y1="13.3333" x2="13.5934" y2="18" gradientUnits="userSpaceOnUse">
<stop stop-color="#00658E"/>
<stop offset="1" stop-color="#3290B6"/>
</linearGradient>
<linearGradient id="paint3_linear_2089_45538" x1="21.2969" y1="3.40747" x2="21.0006" y2="13.4815" gradientUnits="userSpaceOnUse">
<stop stop-color="#00658E"/>
<stop offset="1" stop-color="#3290B6"/>
</linearGradient>
<linearGradient id="paint4_linear_2089_45538" x1="24.8527" y1="13.3334" x2="21.4453" y2="18.0001" gradientUnits="userSpaceOnUse">
<stop stop-color="#00658E"/>
<stop offset="1" stop-color="#3290B6"/>
</linearGradient>
</defs>
</svg>
