<svg preserveAspectRatio="none" width="100%" height="100%" overflow="visible" style="display: block;" viewBox="0 0 47 47" fill="none" xmlns="http://www.w3.org/2000/svg">
<g id="Group">
<g id="Group_2">
<path id="XMLID_11_" d="M23.2177 46.4355C36.0405 46.4355 46.4355 36.0405 46.4355 23.2177C46.4355 10.395 36.0405 3.28638e-05 23.2177 3.28638e-05C10.3949 3.28638e-05 2.41339e-05 10.395 2.41339e-05 23.2177C2.41339e-05 36.0405 10.3949 46.4355 23.2177 46.4355Z" fill="var(--fill-0, #4D76A1)"/>
</g>
<path id="Vector" fill-rule="evenodd" clip-rule="evenodd" d="M22.3405 33.4009H24.1628C24.1628 33.4009 24.7133 33.3405 24.9943 33.0376C25.253 32.7594 25.2447 32.2371 25.2447 32.2371C25.2447 32.2371 25.2091 29.7919 26.344 29.4319C27.4627 29.0772 28.8992 31.7951 30.4219 32.8401C31.5733 33.6311 32.4482 33.4576 32.4482 33.4576L36.5196 33.4009C36.5196 33.4009 38.6494 33.2697 37.6395 31.5952C37.5567 31.4582 37.0514 30.3565 34.6124 28.0925C32.0596 25.7231 32.4015 26.1063 35.4766 22.0077C37.3494 19.5116 38.0981 17.9877 37.8643 17.335C37.6412 16.7134 36.2638 16.8777 36.2638 16.8777L31.6797 16.9063C31.6797 16.9063 31.3399 16.8599 31.0878 17.0106C30.8416 17.1583 30.6831 17.5027 30.6831 17.5027C30.6831 17.5027 29.9575 19.4342 28.9899 21.0769C26.9486 24.5431 26.1325 24.7261 25.7989 24.5108C25.0229 24.0092 25.2166 22.4957 25.2166 21.4204C25.2166 18.0614 25.726 16.6608 24.2245 16.2983C23.7262 16.1778 23.3595 16.0984 22.0852 16.0855C20.4495 16.0686 19.0651 16.0905 18.2812 16.4746C17.7597 16.7299 17.3574 17.299 17.6025 17.3317C17.9054 17.3723 18.5916 17.5167 18.9554 18.0121C19.4252 18.6512 19.4086 20.0865 19.4086 20.0865C19.4086 20.0865 19.6785 24.0407 18.7783 24.532C18.1604 24.8688 17.3127 24.181 15.4929 21.0363C14.5604 19.4255 13.8564 17.645 13.8564 17.645C13.8564 17.645 13.7207 17.3123 13.4786 17.1343C13.1847 16.9187 12.7742 16.85 12.7742 16.85L8.41809 16.8785C8.41809 16.8785 7.76416 16.8967 7.52412 17.1811C7.31055 17.4339 7.50715 17.9571 7.50715 17.9571C7.50715 17.9571 10.9175 25.9358 14.779 29.9566C18.3197 33.6431 22.3405 33.4009 22.3405 33.4009Z" fill="var(--fill-0, white)"/>
</g>
</svg>
